<?xml version="1.0" encoding="utf-8"?>
<!-- Generator: Adobe Illustrator 25.4.1, SVG Export Plug-In . SVG Version: 6.00 Build 0)  -->
<!DOCTYPE svg PUBLIC "-//W3C//DTD SVG 1.1//EN" "http://www.w3.org/Graphics/SVG/1.1/DTD/svg11.dtd" [
	<!ENTITY ns_extend "http://ns.adobe.com/Extensibility/1.0/">
	<!ENTITY ns_ai "http://ns.adobe.com/AdobeIllustrator/10.0/">
	<!ENTITY ns_graphs "http://ns.adobe.com/Graphs/1.0/">
	<!ENTITY ns_vars "http://ns.adobe.com/Variables/1.0/">
	<!ENTITY ns_imrep "http://ns.adobe.com/ImageReplacement/1.0/">
	<!ENTITY ns_sfw "http://ns.adobe.com/SaveForWeb/1.0/">
	<!ENTITY ns_custom "http://ns.adobe.com/GenericCustomNamespace/1.0/">
	<!ENTITY ns_adobe_xpath "http://ns.adobe.com/XPath/1.0/">
]>
<svg version="1.1" id="Capa_1" xmlns:x="&ns_extend;" xmlns:i="&ns_ai;" xmlns:graph="&ns_graphs;"
	 xmlns="http://www.w3.org/2000/svg" xmlns:xlink="http://www.w3.org/1999/xlink" x="0px" y="0px" viewBox="0 0 1242 2208"
	 style="enable-background:new 0 0 1242 2208;" xml:space="preserve">
<style type="text/css">
	.st0{fill:#775F3B;}
	.st1{fill:#62391B;}
	.st2{fill:#A63434;stroke:#A63434;stroke-miterlimit:10;}
	.st3{fill:none;}
	.st4{fill:#805F36;}
</style>
<metadata>
	<sfw  xmlns="&ns_sfw;">
		<slices></slices>
		<sliceSourceBounds  bottomLeftOrigin="true" height="1778.6" width="1252.1" x="-131.1" y="191.2"></sliceSourceBounds>
	</sfw>
</metadata>
<g id="fondo">
</g>
<g id="Capa_2_00000171000038569402273490000012704646517353608069_">
</g>
<g id="Capa_4">
</g>
<g id="onda_sola_grande">
	<g id="_x35_">
		<g>
			<path class="st0" d="M-15.3,1796.9c0.6,0.7,1.4,1.1,2.3,1.6c8.8-3.5,17.4-7.4,25.9-11.7c0.2-0.6,0.3-1.1,0.3-1.6l-2.5-2.1
				c1.9,0.4,2.5,1.1,2.5,2.1l1.1,0.9c0.6-0.3,1.2-0.6,1.7-0.9c1.6-3,2.5-5.1,7.5-7.6c0.2,1.5,0.9,2.3,2,2.6
				c69.5-37.5,134.4-91.4,216.3-67.5c8.4-4.4-0.7-3.5,9.5-6.4c-107-26.1-180.3,53.3-266.4,88.2c0.4,0.2,0.8,0.7,1.4,1.4
				L-15.3,1796.9z"/>
			<path class="st0" d="M-130.5,1804.6c-2.8,2,5.1,1.7,9.3,2.2c2.4,0.7,4.8,1.3,7.2,1.8c0-0.2,0.1-0.4,0.1-0.6
				C-119.4,1807.2-124.9,1806.1-130.5,1804.6z"/>
			<path class="st0" d="M-64.2,1811.1c0.1,0.2,0.1,0.4,0.2,0.6c16.4-1.7,32.3-6,47.7-11.8c-0.7-0.3-1.5-0.6-2.3-0.8
				c1.3-0.8,1.6-2.8,2.1-3.9c-6.5,2.6-13,4.9-19.6,6.9c0.2,1.2-1.1,1-2.5,0.7c-5.6,1.6-11.3,3-17,4.1l2.1,2.9l-4.3-2.4
				c-1.2,0.2-2.4,0.4-3.6,0.6c0.6,0.7,1.2,1.4,1.7,2C-60.6,1810.5-62.9,1810.5-64.2,1811.1z"/>
			<path class="st0" d="M-64.2,1811.1c-0.4-0.9-0.9-1.7-1.6-2.5c-6.8,0.9-13.7,1.4-20.8,1.5c-0.2,0.2-0.5,0.4-0.7,0.6l2.9,1.8
				c6.6,0.2,13,0,19.4-0.7C-64.9,1811.4-64.6,1811.2-64.2,1811.1z"/>
			<path class="st0" d="M-120,1856.2c2.3,0.6,4.7,1.1,7,1.6C-108.2,1854.7-111,1854.6-120,1856.2z"/>
			<path class="st0" d="M122.9,1781.4c41.4-19.5,85.6-31.4,137.6-18.8c-5.3-1.5,3.4-3.7-6.6-3.7c-41.7-12.5-79.3-4.1-115.8,12.3
				l0.4,1.1l-2.5,1.5l0.2-1.8c-5.2,2.4-10.3,4.9-15.5,7.5C121.9,1779.9,122.7,1780.3,122.9,1781.4z"/>
			<path class="st0" d="M55.3,1818.5c4.2-2.4,8.4-4.9,12.6-7.3c-0.3-0.5-0.6-0.9-0.9-1.3c-4.3,2.5-8.5,4.9-12.8,7.4
				C54.6,1817.5,55,1817.9,55.3,1818.5z"/>
			<path class="st0" d="M120,1782.7c-0.6-0.3-0.9-1.2-1-2.3c-16.1,8.3-32.1,17.8-48.2,27.2c-0.2,0.8-0.3,1.5-0.5,2.1
				C86.7,1800.3,103.2,1790.9,120,1782.7z"/>
			<path class="st0" d="M-13.3,1851.6c1.2-0.8,3.3-2.4,5.4-3.1c-0.2-0.3-0.3-0.5-0.5-0.8c-3.6,1.3-7.2,2.6-10.8,3.8
				c1.3,0.4,2.5,1.4,3.6,2.2c1.3-0.5,2.7-1,4-1.5C-11.8,1851.9-12.3,1851.7-13.3,1851.6z"/>
			<path class="st0" d="M-113,1857.8c-1.1,0.7-2.6,1.6-4.5,2.6c16.4,4.3,32,5.7,47.1,5c1.4-1.4,2.7-2.9,3.8-4.5
				C-81.4,1861.9-96.9,1861.1-113,1857.8z"/>
			<path class="st0" d="M42.9,1823.6c0,0.4,0.3,0.8,1.2,1.3c1.8-1,3.7-2.1,5.5-3.1c-0.4-0.4-0.8-0.8-1.2-1.2
				C46.5,1821.6,44.7,1822.6,42.9,1823.6z"/>
			<path class="st0" d="M-65.2,1860.8c-0.4,1.3-0.8,2.5-1.5,3.4c0.6,0.3,1.2,0.6,1.7,0.9c3.1-0.3,6.2-0.6,9.3-1
				c0.8-1.3,1.4-2.9,2-4.5C-57.5,1860.1-61.3,1860.5-65.2,1860.8z"/>
			<path class="st0" d="M-3.1,1845.7c-0.9,0.3-1.7,0.7-2.6,1c0.2,0.5,0.5,1.1,0.8,1.6c0.5,0.1,0.9,0.3,1.3,0.6
				c0.7-0.3,1.4-0.6,2-0.9C-1.8,1847.2-2.3,1846.3-3.1,1845.7z"/>
			<path class="st0" d="M-22.1,1852.4c-0.8,0.3-1.6,0.5-2.4,0.8c-0.3,1.2-0.5,2.4-0.7,3.6c0.1,0.1,0.3,0.1,0.4,0.1
				c1.6-0.5,3.1-1,4.7-1.5c0.4-0.3,0.7-0.7,0.9-1.2L-22.1,1852.4z"/>
			<path class="st0" d="M3,1844.1c-1.8,0.7-2.5,1.9-2.6,3.2c1-0.4,2-0.9,3-1.3c0.4-0.5,0.7-1,1-1.6C4,1844.2,3.5,1844.1,3,1844.1z"
				/>
			<path class="st0" d="M114.3,1844.1l0.8,0.3c15.6-8.8,31.1-16.9,47-23.2c0-0.1-0.1-0.2-0.1-0.2c0.1,0.1,0.2,0.1,0.2,0.2
				c29-11.5,59-16.9,91.9-9.7c-0.1-0.9,0.4-2.1,2-3.5c0.3,0.9,0.3,4.1,2.3,4.1c0.9-1.5,0.2-3.3-0.2-4.9
				c-37.6-7.4-71.2-0.1-103.4,13.4c-0.8,1.5-2,2.4-4.3,1.8c-0.2,0.1-0.5,0.2-0.7,0.3c0,0.1,0.1,0.2,0.1,0.3l-0.1-0.3
				c-12.1,5.3-23.9,11.5-35.7,18.1c0.1,0,0.1,0,0.2,0C114.8,1842.7,114.8,1842.7,114.3,1844.1z"/>
			<path class="st0" d="M72.8,1869c0-0.2-0.1-0.4-0.1-0.6c-0.2-1.1-0.4-2.3-0.6-3.5c-15.2,8.7-30.5,17.2-46.2,24.5l2.3,3.3
				C43.5,1885.7,58.3,1877.5,72.8,1869z"/>
			<path class="st0" d="M-5.4,1901.9c-2.1,0.7-4.1,1.3-6.2,1.9c0.8,0.5,1,1.2-0.5,2.7c-4.7-1-7.7,1.1-9.8,3.7
				c7.3-1.7,14.5-3.7,21.6-6.1c-1.5,0.4-3.3,0.3-5.8-0.2C-5.8,1903.3-5.6,1902.6-5.4,1901.9z"/>
			<path class="st0" d="M81.4,1864c-0.3-1.2-0.5-2.4,0.9-3.2c0,0.9,0.2,1.7,0.3,2.5c10.2-6,20.4-12.1,30.5-17.8l-2.4-0.2
				c0.5-1.3,0.8-2.4,1.2-3.2c-12.2,6.8-24.3,14-36.6,21.1c0.8,1.1,1.7,2.2,2.7,2.9C79.1,1865.3,80.3,1864.7,81.4,1864z"/>
			<path class="st0" d="M8.5,1901.1c3.8-1.4,7.5-3,11.3-4.6c-1.3-0.2-2.3-1-2.6-3.1c-3.7,1.6-7.4,3.1-11.1,4.5
				c-0.1,0.2-0.3,0.4-0.4,0.7L8.5,1901.1z"/>
			<path class="st0" d="M23.5,1890.6c-0.6,0.3-1.2,0.5-1.8,0.8C22.4,1891.4,23.1,1891.2,23.5,1890.6z"/>
			<path class="st0" d="M0.9,1903.8c1.5-0.5,3-1,4.5-1.6c0.2-1.1,0.4-2.3,0-3.4C4,1901.1,2.9,1902.9,0.9,1903.8z"/>
			<path class="st0" d="M259.4,1809.3l-0.9,3.3c2.4,0.6,4.9,1.3,7.4,2c3.5-1.8-1.8-2.4,3.8-4.8c-1.9-0.5-3.8-1-5.7-1.4
				c-0.1,0.5-0.2,1-0.4,1.5C262.2,1811.8,261.7,1810.1,259.4,1809.3z"/>
			<path class="st0" d="M7.9,1956.3c-0.5-0.9-0.9-1.8-1.4-2.7c-3.8,1.2-7.7,2.2-11.5,3.2l-2,3.8C-1.9,1959.4,3,1957.9,7.9,1956.3z"
				/>
			<path class="st0" d="M161,1877.6c36.9-16.5,76.7-25.9,123.5-16.4c-1.1-0.4-1.6-1,0.2-2c-44-12.7-82.9-3.4-120.3,13.9
				C163.6,1874.5,162.3,1876,161,1877.6z"/>
			<path class="st0" d="M12.3,1954.8c51-18,96-53.2,146-76c-0.3-0.8-0.6-1.6-0.9-2.5c-41.2,20.1-80.8,48.7-123.9,67.3
				c-0.9,0.9-2,1.3-3.2,1.4c-5.3,2.2-10.7,4.3-16.2,6.2c0,0.1,0,0.3,0,0.4C13,1952.1,12.5,1953.4,12.3,1954.8z"/>
			<path class="st0" d="M-26.6,1964.5c0.5-0.1,1-0.2,1.5-0.2c2.5-1.7,5.8-2.7,8-4.9c-4.6,0.8-9.3,1.4-14.1,1.9
				C-29.8,1962.7-28.2,1963.8-26.6,1964.5z"/>
			<path class="st0" d="M286.5,1861.6c0.7,0.1,1.3,0.3,2,0.4C288.7,1861.8,287.7,1861.8,286.5,1861.6z"/>
			<path class="st0" d="M284.4,1861.2c0.6,0.2,1.4,0.3,2.1,0.4C285.8,1861.4,285.1,1861.3,284.4,1861.2z"/>
			<path class="st0" d="M290.9,1911.7c1.3,0.6,7.1,1.7,14.5,1.2c-8.8-2-17.3-3.3-25.7-4.1C283.4,1909.6,287.1,1910.5,290.9,1911.7z"
				/>
			<path class="st0" d="M-52.7,2014.1c0.6-1.2,1.2-2,2-2.4c-1.6-0.2-3.2-0.4-4.8-0.7C-54.9,2012.7-54.2,2014.2-52.7,2014.1z"/>
			<path class="st0" d="M206,1912.8c-29.6,8.9-58.2,25.1-87,41.9c-0.8,1.9-2.9,3.8-2.6,5.2c28.2-16.3,56.7-32.4,87.5-42.2
				C205,1916.3,206.2,1914.7,206,1912.8z"/>
			<path class="st0" d="M206.1,1912.8l1.2,3.8c22.6-6.8,46.5-10.3,72.4-7.9C254.2,1903.1,229.9,1905.6,206.1,1912.8z"/>
			<path class="st0" d="M-74.6,2007.8c-4.7,1.9,3,0.6-2.1,4.3c1.4,0.3,2.7,0.6,4.1,0.9C-73,2010.7-73.6,2008.7-74.6,2007.8z"/>
			<path class="st0" d="M-15,2011.9c1.6,1.1,7.1-2,8.7,2.2c44.1-7.8,83.1-31.2,122.6-54.1l-2.4-2.3C72.4,1982,30.5,2006.7-15,2011.9
				z"/>
			<path class="st0" d="M-38.8,2013.8c2.2-0.6,4.4-1.8,3.7,2.4c0.2,0.3,0.5,0.4,0.7,0.6c0.7,0,1.3,0,2,0c0.7-0.8,1.1-2.4,1.5-3.9
				c-3.7,0-7.4-0.1-11.1-0.3C-41.5,2014.2-40.2,2014.1-38.8,2013.8z"/>
			<path class="st0" d="M-63.7,2011.8c-1.8-2.1-2.7,0-3.5,2.2c1.6,0.3,3.2,0.6,4.8,0.8C-62.7,2013.6-63.1,2012.6-63.7,2011.8z"/>
		</g>
	</g>
</g>
<g>
	<g>
		<g>
			<path class="st1" d="M631.5,449.3c-3.4,0-6.5-1.9-8.2-4.9l-54.7-105.8c-9.9-21.7-8.4-46.8,3.9-67.1c12.1-19.9,32.2-32,55.1-33.2
				l0,0c2.5-0.1,5.1-0.1,7.7,0c22.9,1.2,43,13.2,55.1,33.2c12.4,20.4,13.9,45.4,4,66.9l-54.8,106C638,447.4,634.9,449.3,631.5,449.3
				L631.5,449.3z M628,245.6c-20.5,1-38.4,11.9-49.2,29.7c-11.1,18.3-12.5,40.8-3.6,60.2L629.8,441c0.5,0.9,1.4,1,1.7,1
				c0.4,0,1.3-0.1,1.8-1.1l54.6-105.7c8.8-19.2,7.4-41.7-3.7-60c-10.8-17.8-28.8-28.6-49.2-29.7C632.7,245.4,630.3,245.4,628,245.6
				L628,245.6z"/>
		</g>
		<path class="st2" d="M650.9,287c-7-1.6-14.6,1.5-19.4,7.9c-4.8-6.4-12.4-9.6-19.4-7.9c-7.7,1.8-12.8,8.5-13,17.1
			c-0.4,24.2,31.7,44,32,44.1c0.1,0,0.2,0.1,0.4,0.1c0.1,0,0.2,0,0.4-0.1c0.3-0.1,32.4-20,32-44.1
			C663.7,295.5,658.6,288.8,650.9,287z"/>
	</g>
</g>
<g>
	<g>
		<g>
			<path class="st1" d="M331,1357.5c3.8-21.6,26.6-32.1,45.2-34.3c1.7-0.3,3.5-0.4,5.5-0.4c10.6-12.9,24.7-17.2,31.1-18.2
				c16.4-2.5,25.1,6.9,16.1,13.3c-6.4,4.5-26.5,5-41.7,5.9c-8.4,10.5-11.9,21.4-10.5,28.6c2,9.7,8.4,12.3,24.5,5.9
				c12.3-4.9,24.1-22.4,28.2-29.4c0.6-1.3,1-2,1-2c1.8-1.1,3.4,0.4,2.8,6.3c0,0-9.7,26.2-19.9,47.8c5.3,0.8,10.6,1.8,19.1,2.5
				c16.8,1.4,25.5-1.3,35.4-5c-9.8,4.5-20.3,9.2-53.1,3.6c-0.6-0.1-1.3-0.3-2-0.4c-4.3,9.2-9,17.5-12.9,22.6
				c-9.1,11.3-20.3,14.1-28.7,13.4c-14.4-1.1-14.8-14-10.6-21c6.2-10.6,22.3-16.5,37-16.9c4.1-0.1,7.6,0,10.6,0.4
				c1.5-3.5,2.8-7.1,4.3-10.9c5.2-13.4,9.8-24,12.9-31c-5.9,9.1-15.5,18.9-27.3,22.8c-27.5,9.1-30-15.5-21-31.2
				c1.1-2,2.4-3.8,3.8-5.6C354.3,1326.2,337.3,1338.1,331,1357.5z M369.8,1389.1c-14.1,9.1-13.2,25.9,0.6,27.3
				c17.8,1.7,27.7-13.6,37-35.3C390.4,1379.6,378.8,1383.5,369.8,1389.1z M392.5,1317.8c-1.5,1.4-2.8,2.9-4.2,4.5
				c13-0.8,28.9-1.4,34.9-3.4c13.9-4.3,6.3-12.9-2-13.2C409.6,1305.2,399.8,1310.7,392.5,1317.8z"/>
			<path class="st1" d="M443.4,1343.7c4.5-0.1,8.3,2.7,8.3,9.9c0,2.1-0.4,5.2-1.3,8c1.4-0.6,2.9-1.5,4.5-2.8c6-4.9,7.6-9.9,10.6-9.5
				c-3.4,2.5-6.2,8.5-12,12c-1.1,0.7-2.4,1.1-3.6,1.7c-2.2,6.7-6.6,13.7-11.6,13.4c-7.1-0.3-7.7-9.7-4.3-16.2
				c0.4-0.8,0.8-1.7,1.1-2.4C431,1350,437.8,1343.9,443.4,1343.7z M438.6,1361.7c-1.1,1.8-1.8,3.6-2.4,5.5c-1.3,5,1.1,10.5,5.6,6.6
				c2.1-2,4.5-5.9,6.3-10.5C444.9,1364.1,441.4,1363.6,438.6,1361.7z M441.8,1349.5c2.8-0.4,3.1,2.2,2.8,3.8c0,0.1-2.9,3.2-5.3,7.4
				c2.4,1.8,5.7,2.5,9.4,1.7c2.1-6,2.8-12.9-0.8-15.7c-4.8-4.1-10.6,0.6-11.5,4.1c-0.4,2-0.4,3.8,0,5.5
				C438.9,1351.9,441,1349.5,441.8,1349.5z"/>
			<path class="st1" d="M465.6,1343.7c4.5-0.1,8.3,2.7,8.3,9.9c0,2.1-0.4,5.2-1.3,8c1.4-0.6,2.9-1.5,4.5-2.8c6-4.9,7.6-9.9,10.6-9.5
				c-3.4,2.5-6.2,8.5-12,12c-1.1,0.7-2.4,1.1-3.6,1.7c-2.2,6.7-6.6,13.7-11.6,13.4c-7.1-0.3-7.7-9.7-4.3-16.2
				c0.4-0.8,0.8-1.7,1.1-2.4C453.3,1350,460,1343.9,465.6,1343.7z M460.9,1361.7c-1.1,1.8-1.8,3.6-2.4,5.5c-1.3,5,1.1,10.5,5.6,6.6
				c2.1-2,4.5-5.9,6.3-10.5C467,1364.1,463.5,1363.6,460.9,1361.7z M464.1,1349.5c2.8-0.4,3.1,2.2,2.8,3.8c0,0.1-2.9,3.2-5.3,7.4
				c2.4,1.8,5.7,2.5,9.4,1.7c2.1-6,2.8-12.9-0.8-15.7c-4.8-4.1-10.6,0.6-11.5,4.1c-0.4,2-0.4,3.8,0,5.5
				C461.2,1351.9,463.3,1349.5,464.1,1349.5z"/>
			<path class="st1" d="M489.3,1367.7c3.9-1.1,7.1-1,9.5,0.3c9.8-6.2,15.4-10.5,19.9-18.6c-1,6.6-8.8,13-18.6,19.3
				c4.3,2.9,5.3,9.5,4.3,14.7c-2,9.7-7.7,17.8-18.2,24.5c-8,5-18.6,6.2-22.8,3.4c-10.6-7.4,4.5-23.8,16-31.1
				c7-4.5,12.9-8.3,17.7-11.2c-1.8-0.7-3.9-1-6.9-0.4c-4.8,1.1-8.1,2.5-8.1,2.5S485,1368.8,489.3,1367.7z M480.2,1381.3
				c-24.5,16.2-24.1,36.1-4.1,27c22.7-10.6,25.8-26.5,24.8-33.3c-0.4-1.8-1.1-3.8-2.8-5C492.5,1373.6,486.2,1377.2,480.2,1381.3z
				 M499.1,1347.9c0.4,0.4,1.1,0.8,1.4,1.7c1.8,5.2-4.3,13.2-11.6,17.1c-6.6,3.6-11.1,2.1-12-3.5c-1.7-9.1,9.1-16.2,13.9-17.5
				c2.1-0.6,3.8-0.7,5.2-0.7C499.1,1345.4,500,1347.1,499.1,1347.9z M485.1,1354.5c-5.2,5.6-6.4,12.5-2.2,12.2c4.3-0.4,9-3.5,13-8.5
				c3.2-4.1,3.1-8.3,2.1-9.9C496.2,1348.2,490.4,1349.3,485.1,1354.5z"/>
			<path class="st1" d="M512.7,1377.9c-0.4,2.9,0.1,5.2,2.8,1.5c8-11.2,17.7-26.5,25.9-30c-5.6,5.2-12.9,13.4-18.6,22
				c-8,11.8-9.1,12.5-11.3,11.3c-4.2-2.1-2.1-14.3,0.4-22.6c3.1-9.9,11.2-29.7,20.2-42.9c4.3-6.3,8.3-11.3,12.2-13.9
				c3.1-2.1,6.9-2.9,9.1,0.1c4.5,6.7-20.7,35.6-28.3,42.4c-1.4,1.3-2.4,2.2-3.2,2.8C515,1363.9,513.3,1372.5,512.7,1377.9z
				 M525.9,1339.1c-1.1,2.5-2.4,5-3.4,7.3c3.9-4.1,11.3-11.9,15.5-17.4c9.9-12.6,12.9-18.9,13.6-21.7c1.8-7.1-5.5,0.4-7.6,2.5
				C540.9,1313.6,534.3,1321.9,525.9,1339.1z"/>
			<path class="st1" d="M536.4,1359.7c-1.7,8,2.7,10.9,7.1,9.1c7.6-2.9,14.7-19.5,20-19.3c-5.2,4.8-5.6,6.3-9.2,10.9
				c-4.6,5.9-9.7,11.3-15.4,10.6c-7.7-0.8-8.5-10.5-6.6-14.8c2-4.6,6-9.9,12.6-10.5c5.2-0.4,7.4,4.6,2.2,9.1
				c-3.1,2.5-7.6,3.8-10.6,4.3C536.5,1359,536.4,1359.4,536.4,1359.7z M540.7,1356.6c8.3-2.8,9.8-9.1,5.3-8c0,0-6.7,0.8-9.2,9.1
				C537.9,1357.5,539.3,1357.2,540.7,1356.6z"/>
			<path class="st1" d="M603.1,1353.8c0.1,2.1-2.4,7-2.8,8c0.4,0,1.1-1.4,3.4-4.2c2.8-3.5,5.9-5.9,8.1-5.6c3.2,1.1,3.5,3.8,2.1,6.9
				c-1.3,3.1-2.8,9.1,0.4,5.2c2.4-2.9,12.9-16.7,17.1-18.6c3.5-1.7,7.6,1,5.2,7.6c-0.7,2.5-3.1,6.7-7,12.9
				c-5.9,8.8-5.9,17.7,0.4,12.5c9.9-8,14-29.3,23.4-28.9c-7.7,3.5-10.6,13.4-14,19.1c-6.3,10.9-11.6,14.4-15.4,11.8
				c-3.8-2.7-4.8-7.3-0.3-14.7c6.3-10.2,11.5-22.6,6.7-18.6c-6.6,5.6-14.1,16.5-16.2,18.6c-1.8,1.8-3.6,1.8-5,0.4
				c-1.1-1.1-1.8-3.8,0.7-9.9c2.2-5.5-0.7-2.8-3.1-0.7c-4.3,3.9-10.1,15.3-11.5,17.4c-2.2,3.5-5.3-1-4.1-4.5
				c0.3-0.6,7.6-16.7,6.6-18.5C599.3,1348.9,602.9,1348.8,603.1,1353.8z"/>
			<path class="st1" d="M665.4,1373.6c5.9-8.5,13-23.3,17.9-24.4c-5.2,5.9-6.4,8.5-9.4,13.2c-5.6,9.1-8.7,15.3-12,14.7
				c-3.6-0.6-7-5.3-3.2-15.7c0.1-0.4,0.4-0.8,0.4-1.1c-4.2,5.2-8.3,9.9-12.2,5.6c-3.9-4.5-0.1-12.6,3.5-16c2.7-2.5,7.7-4.5,13-3.2
				c5.9,1.5,1.4,1.5,1.4,1.5s-7.6-1.7-13,7c-3.9,6.4-1.8,12.3,1.4,9.2c1.8-1.7,5.5-6.4,8.5-10.2c1.5-2.5,3.1-5.3,4.6-5.3
				c1.5-0.1,5.2,0.4,2,4.6C659.2,1365.6,659.1,1382.7,665.4,1373.6z"/>
			<path class="st1" d="M641.2,1413.8c-1-13.4,23.8-35.6,27.9-39.2c1.5-1.4,2.8-2.5,3.8-3.1c1.8-5.9,2.9-10.2,3.5-11.5
				c3.2-9.5,5.2-10.8,6.6-10.4c1.8,0.8,1.7,2.8,0.6,5.9c3.2-3.9,7.6-8,13.3-8c7-0.3,9.1,6.6,6.7,14.6c5.3-1.8,10.6-4.9,15.4-12.3
				c-2.5,8.1-9,11.2-15.8,13.4c-0.8,2.4-2.1,5-3.8,7.4c-7.6,10.6-17.1,9.2-18.2,5.9c-1-2.9,1-5.6,4.1-7.7c4.3-2.8,9-3.8,13.4-5.2
				c2.4-6.3,2.9-13.9-1.5-14.3c-5.9-0.6-11.1,4.6-14.7,9.5c-1.7,4.2-4.1,9.8-5.9,16.2c-3.5,12-8.5,26.5-14.7,36
				C653.5,1423.5,641.9,1423.2,641.2,1413.8z M666.1,1379.5c-8.5,8-14.3,14.6-19.3,23.1c-5.5,9.2-4.5,16.9,0.4,16.4
				c10.6-1,20-28.4,25.2-45.7C671,1374.6,669,1376.5,666.1,1379.5z M686,1369.2c-3.6,2.4-4.5,5.3-3.6,6.7c2.1,3.5,8.7-0.7,13-7
				c1-1.1,1.8-2.7,2.4-4.3C693.8,1366,689.6,1367.1,686,1369.2z"/>
			<path class="st1" d="M721,1350.3c-0.4,1.4-0.4,3.5,1,5.9c1.8,3.1,3.8,5.9,4.5,8.3c10.2-5,12.7-8,17.8-14.7
				c-2.2,6.9-9.4,12-17.7,15.8c1.5,4.8,1.3,8.7-1.8,13.4c-5.2,8.3-16.2,10.9-19.9,6.6c-4.9-6,2.8-12.9,14.1-17.8
				c1.7-0.7,2.9-1.4,4.3-2c-0.4-2-1.1-3.8-2.4-5.9c-4.9-7.7-4.1-8.5-3.9-10.4c0.3-3.2,4.1-6.6,4.1-6.6c2.2-1.7,2.8,1.7,2.4,3.5
				C722.6,1347.2,721.4,1348.8,721,1350.3z M722.4,1367c-9.5,4.1-17.8,9.5-17.1,14.7c0.4,3.5,3.5,4.6,7.4,2.5
				c3.8-2.1,12.2-9,11.3-17.8C723.4,1366.9,722.8,1366.9,722.4,1367z"/>
			<path class="st1" d="M774.7,1377.9c-0.4,2.9,0.1,5.2,2.8,1.5c8-11.2,17.7-26.5,25.9-30c-5.6,5.2-12.9,13.4-18.6,22
				c-8,11.8-9.1,12.5-11.3,11.3c-4.2-2.1-2.1-14.3,0.4-22.6c3.1-9.9,11.2-29.7,20.2-42.9c4.3-6.3,8.3-11.3,12.2-13.9
				c3.1-2.1,6.9-2.9,9.1,0.1c4.5,6.7-20.7,35.6-28.3,42.4c-1.4,1.3-2.4,2.2-3.2,2.8C777.2,1363.9,775.4,1372.5,774.7,1377.9z
				 M788.1,1339.1c-1.1,2.5-2.4,5-3.4,7.3c3.9-4.1,11.3-11.9,15.5-17.4c9.9-12.6,12.9-18.9,13.6-21.7c1.8-7.1-5.5,0.4-7.6,2.5
				C803,1313.6,796.5,1321.9,788.1,1339.1z"/>
			<path class="st1" d="M810.2,1361.4c-4.6,6.2-8.4,10.1-12.3,9c-6.3-2-1-17.8,3.5-20.9c2-1,3.1,0.1,2.8,1.7
				c-0.4,2.5-3.1,6.3-4.3,10.8c-0.8,3.4-1.8,7.3,0.7,6.9c3.1-0.4,9.1-9.2,13-14.3c3.4-4.2,4.3-5.3,6.6-5.3
				C817,1351,814.4,1355.8,810.2,1361.4z M805.2,1345.3c-1.1-0.4-1.3-1.1-0.4-2.8c1-2,0.4-2.4,2-3.2c1.1-0.6,4.8-0.3,3.5,2.4
				C809.1,1344.2,806.6,1345.6,805.2,1345.3z"/>
			<path class="st1" d="M823.5,1352.7c0.1,3.4-1,5-2.8,9c4.3-6,14.1-16,21-17.8c3.8-1,5.6,2.5,5.2,5.2c-0.4,3.9-11.9,19.5-13.3,25.2
				c-2,8.5,3.2,5.7,4.9,4.5c4.9-3.6,14.1-20.2,18.2-25.1c5.2-5.9,7-3.9,7-3.9c-8.1,2-17.8,28-26.9,31.5c-2.7,1.1-6.7,0.4-8-3.8
				c-2.4-8.5,13.2-28.4,13.7-31.4c0.4-3.4-9.4,2.7-16.2,10.6c-4.6,5.3-7.1,9.5-9.2,12.7c-0.4,0.7-2.8,0.7-3.8-1
				c-0.4-0.7-1.7-2.4,2.1-10.1c4.2-8.5,2.4-8.3,2.4-8.3C818.9,1348.6,823.5,1349.5,823.5,1352.7z"/>
			<path class="st1" d="M901,1306.2c-1,12.2-27.3,37.1-36,44c-2.1,3.8-2.4,5.9-3.9,10.1c1.5-2.8,10.9-14.3,18.5-12.9
				c7,1.4,4.3,9.2-1.1,12.3c-3.8,2.1-10.8,4.6-11.1,5.5c7.7,3.4,1.8,12.6,5.2,16.2c5.9,3.8,15.4-25.6,27.3-32.1
				c-1.3,1.1-2.4,3.1-4.2,5.2c-8.5,9.5-12.9,21.4-17.8,26.5c-2.4,2.4-5.2,2.1-6.4,1.3c-8-4.5-0.6-15.1-5.9-16.2
				c-1.1-0.3-2.1-2.1-0.8-3.5c2-2.1,8.8-4.1,13.4-7.6c7.7-5.5,1.7-9.2-5.9-3.9c-9.7,6.7-11.3,12.9-14.6,22.6c-4.3,0-4.2-3.6-3.5-7.6
				c0.3-1,9.9-30.5,19.3-44.5c9.1-14.7,17.2-18.9,19.1-19.6C897.5,1300.3,901.3,1302.7,901,1306.2z M894.3,1305.6
				c-12.3,8-23.4,29.1-28.7,42.2c13.2-10.9,32.5-32.9,33.6-40.2C899.9,1304.4,897.4,1303.7,894.3,1305.6z"/>
		</g>
	</g>
</g>
<g>
	<a xlink:href="https://goo.gl/maps/LpJUn61R5nMk9geNA"  pointer-events="all" target="_blank">
		<rect x="527.1" y="1437.2" class="st3" width="203" height="252.1"/>
		<path class="st1" d="M713.9,1479.2c-12.7-28.9-51.3-36.1-73.7-14c-1,0.8-1.8,1.3-3.1,1.3c-22.4,0-44.8,0-67.2,0
			c-12.2,0-21.6,9.4-21.6,21.6c0,37.5,0,74.8,0,112.3c0,1.4,0.1,3.1,0.4,4.5c2.4,10.5,10.6,17.1,21.4,17.1c18.6,0,37.1,0,55.8,0
			s37.1,0,55.8,0c2.4,0,5-0.4,7.3-1.1c9.1-3.1,14.7-10.9,14.7-20.6c0-21.6,0-43.1,0-64.6c0-1,0.4-2,0.8-2.8
			c2.2-3.5,4.5-6.9,6.6-10.6C719,1508.2,720.5,1493.9,713.9,1479.2z M643.4,1534.1c10.5,14.3,19.5,29.7,23.7,47.6
			c-12-12-24-24-35.7-35.6C635.3,1542.1,639.3,1538.2,643.4,1534.1z M559.6,1606.3c-0.4,0.4-0.7,0.8-1.4,1.3
			c-0.1-0.8-0.1-1.1-0.1-1.7c0-40.5,0-81,0-121.7c0-5,3.2-8.3,8.1-8.3c22,0,44.3,0,66.3,0c0.4,0,0.7,0,0.8,0
			c-1,3.9-2.2,7.7-2.8,11.6c-2.1,12,0.6,23.5,6.3,34c0.6,1,0.8,2.1,1.7,2.8c1.3,1.5,0.7,2.5-0.6,3.9
			C611.6,1554.3,585.7,1580.3,559.6,1606.3z M565.2,1613.4c20-20,40.2-40.2,60.4-60.2c19.8,19.8,39.9,39.9,60.2,60.2
			C645.4,1613.4,605,1613.4,565.2,1613.4z M694.5,1602.6c0,1.7-0.6,3.4-1,4.9c-8.3-8.3-16.2-16.2-24.2-24.2c0.8-0.1,1.7-0.1,2.7-0.3
			c6.2-1.1,9.2-5.2,10.5-10.9c2.2-9.8,5.7-19.2,10.4-28.2c0.3-0.7,0.7-1.4,1.3-2.2c0.1,0.8,0.3,1.3,0.3,1.7
			C694.7,1563,694.7,1582.7,694.5,1602.6z M702.2,1512.3c-3.1,5.6-6.6,10.8-10.1,16.1c-7.7,11.2-14.3,23-19.3,35.6
			c-0.1,0.4-0.4,0.7-0.6,1.3c-1.7-3.8-3.2-7.3-4.8-10.8c-5.2-11.3-12-21.6-19.1-31.8c-3.8-5.5-7.1-11.2-9.1-17.7
			c-5.7-19.1,7-39.9,26.8-43.3c18.2-3.2,34.9,7.4,39.6,25.4C707.8,1495.7,706.6,1504.3,702.2,1512.3z"/>
		<path class="st1" d="M605.7,1493.6c-1.7,1.7-3.2,3.2-5,4.9c-7.4-4.9-13.2-5.2-18.5-1c-4.9,3.8-6.7,10.1-4.6,16
			c2,5.6,7.6,9.4,13.4,9.2c4.9-0.1,10.5-3.2,11.5-7c-3.9,0-7.7,0-11.6,0c0-2.4,0-4.6,0-7c7,0,13.9,0,20.9,0
			c1.8,5.9-4.8,16.1-12.5,19.3c-9.9,4.3-21.7,0.4-27-9.1s-2.5-21.4,6.4-27.7C587.9,1485.1,599.7,1487.3,605.7,1493.6z"/>
		<path class="st1" d="M661.6,1498c0-5.9,4.8-10.6,10.6-10.5c5.9,0,10.5,4.8,10.5,10.6s-4.8,10.6-10.6,10.6
			C666.2,1508.8,661.5,1504,661.6,1498z"/>
	</a>
	<g>
		<path class="st4" d="M593.1,1675.1v0.8c-2.2-1.1-4.1-2.4-5.5-3.9c-2.1-2.1-3.8-4.6-4.9-7.6c-1.1-3-1.7-5.9-1.7-9
			c0-4.5,1.1-8.7,3.4-12.5c2.2-3.8,5.2-6.4,8.7-8v1c-1.8,1-3.2,2.4-4.3,4.1s-2.1,3.9-2.5,6.6c-0.6,2.7-0.8,5.3-0.8,8.3
			c0,3.2,0.3,6,0.7,8.5c0.4,2.1,0.8,3.6,1.4,4.9c0.4,1.3,1.3,2.4,2.2,3.5C590.4,1673.1,591.6,1674.1,593.1,1675.1z"/>
		<path class="st4" d="M613.1,1658.8c-0.4,2.7-1.5,4.8-3.2,6c-1.5,1.4-3.2,2.2-5.2,2.2c-2.4,0-4.2-1-6-2.9c-1.7-2-2.5-4.5-2.5-7.8
			c0-3.2,1-5.7,2.8-7.7s4.2-2.9,6.9-2.9c2,0,3.6,0.4,4.9,1.5c1.3,1.1,2,2.2,2,3.2c0,0.6-0.1,1-0.4,1.4c-0.4,0.4-0.8,0.4-1.4,0.4
			c-0.8,0-1.4-0.3-2-0.8c-0.3-0.4-0.4-0.8-0.4-1.7c-0.1-0.8-0.4-1.5-0.8-2c-0.4-0.5-1.3-0.6-2.1-0.6c-1.4,0-2.7,0.4-3.5,1.5
			c-1.3,1.4-1.8,3.2-1.8,5.7c0,2.4,0.6,4.5,1.7,6.3c1.3,1.8,2.8,2.8,4.8,2.8c1.4,0,2.7-0.4,3.9-1.4c0.8-0.7,1.5-2,2.4-3.6
			L613.1,1658.8z"/>
		<path class="st4" d="M623.5,1635.2v26.6c0,1.3,0.1,2.1,0.3,2.5c0.1,0.4,0.4,0.7,0.8,1s1.1,0.4,2.1,0.4v0.7h-9.8v-0.7
			c1,0,1.5-0.1,2-0.3c0.4-0.3,0.6-0.4,0.7-1c0.1-0.6,0.3-1.4,0.3-2.5v-18.2c0-2.4,0-3.6-0.1-4.1c-0.1-0.4-0.3-0.8-0.4-1.1
			c-0.3-0.3-0.4-0.3-0.8-0.3c-0.4,0-0.8,0.1-1.4,0.4l-0.4-0.7l6-2.4h1.1L623.5,1635.2L623.5,1635.2z"/>
		<path class="st4" d="M636.5,1645.8v16.2c0,1.3,0.1,2.1,0.3,2.5c0.1,0.4,0.4,0.7,0.8,1c0.4,0.3,1,0.4,2,0.4v0.7h-9.8v-0.7
			c1,0,1.5-0.1,2-0.3c0.4-0.3,0.6-0.4,0.7-1c0.3-0.4,0.3-1.4,0.3-2.5v-7.8c0-2.2-0.1-3.5-0.3-4.2c-0.1-0.4-0.3-0.8-0.4-1
			c-0.3-0.1-0.4-0.3-0.8-0.3c-0.4,0-0.8,0.1-1.4,0.4l-0.4-0.7l6-2.4h1.1L636.5,1645.8L636.5,1645.8z M634.6,1635.2
			c0.6,0,1.1,0.3,1.5,0.6c0.4,0.4,0.6,1,0.6,1.5c0,0.6-0.3,1.1-0.6,1.5c-0.4,0.4-1,0.6-1.5,0.6c-0.6,0-1.1-0.3-1.5-0.6
			c-0.4-0.4-0.6-1-0.6-1.5c0-0.6,0.3-1.1,0.6-1.5C633.4,1635.4,634.1,1635.2,634.6,1635.2z"/>
		<path class="st4" d="M659.6,1658.8c-0.4,2.7-1.5,4.8-3.2,6c-1.5,1.4-3.2,2.2-5.2,2.2c-2.4,0-4.2-1-6-2.9c-1.7-2-2.5-4.5-2.5-7.8
			c0-3.2,1-5.7,2.8-7.7s4.2-2.9,6.9-2.9c2,0,3.6,0.4,4.9,1.5c1.3,1.1,2,2.2,2,3.2c0,0.6-0.1,1-0.4,1.4c-0.4,0.4-0.8,0.4-1.4,0.4
			c-0.8,0-1.4-0.3-2-0.8c-0.3-0.4-0.4-0.8-0.4-1.7c-0.1-0.8-0.4-1.5-0.8-2c-0.4-0.5-1.3-0.6-2.1-0.6c-1.4,0-2.7,0.4-3.5,1.5
			c-1.3,1.4-1.8,3.2-1.8,5.7c0,2.4,0.6,4.5,1.7,6.3c1.3,1.8,2.8,2.8,4.8,2.8c1.4,0,2.7-0.4,3.9-1.4c0.8-0.7,1.5-2,2.4-3.6
			L659.6,1658.8z"/>
		<path class="st4" d="M662.6,1636.1v-1c2.2,1.1,4.1,2.4,5.6,3.9c2.1,2.1,3.6,4.6,4.9,7.6c1.1,2.9,1.7,5.9,1.7,9
			c0,4.5-1.1,8.7-3.2,12.5c-2.2,3.8-5.2,6.4-8.7,8v-0.8c1.8-1,3.2-2.4,4.3-4.1c1.3-1.7,2.1-3.9,2.5-6.6c0.6-2.7,0.8-5.5,0.8-8.3
			c0-3.2-0.3-6-0.7-8.5c-0.4-2.1-0.8-3.6-1.4-4.9c-0.4-1.3-1.3-2.4-2.2-3.5C665.3,1638.2,664.2,1637.1,662.6,1636.1z"/>
	</g>
</g>
<g>
	<path class="st1" d="M442.1,583.7c0.4-1.1,0.7-1.9,1-2.5c1.9-3.2,5-7,9.4-11.3c12.8-13.2,27.9-23.3,45.4-30.1
		c11.1-4.2,21.7-6.3,31.7-6.3c19,0,34.9,4.8,47.8,14.3c11,8.2,17.3,19.7,18.9,34.7c0.2,1.6,0.3,3.9,0.3,7c0,8.4-1.4,17.8-4.3,27.9
		c-3.9,13.6-10.5,28.1-19.5,43.5c-7.6,12.8-17.3,26.2-29,40c-4,4.9-10.6,11.8-19.5,20.8c-8,7.9-16.4,15.2-25.2,21.9
		c-14.7,11.4-29.2,20.1-43.6,26.3c-9.4,3.9-17.8,6.2-25.3,7c-2.6,0.3-5.1,0.4-7.6,0.4c-5.4,0-10-0.8-13.9-2.3
		c-12.4-5.1-18.6-15-18.6-29.4c0-5,0.7-9.5,2.2-13.6c1-2.6,1.8-4.3,2.3-5.1c0.9-1.6,2-2.3,3.3-2.3c0.6,0,1.1,0.1,1.8,0.4
		c2.1,0.7,3.5,2.4,4.1,5c0.9,4,1.6,7.1,1.9,9.1c0.3,1.5,0.6,3.4,1,5.9l0.8,5.8c0.1,0.9,0.3,2,0.6,3.4c0.3,1.3,0.6,2.4,0.8,3.1
		l0.3,1.4c-0.5,0.3-0.8,0.4-1.1,0.4c-0.3,0-0.6-0.1-0.8-0.4c-1.5-1.7-2.4-3.9-2.9-6.9c-0.6-2.7-1.4-7.5-2.6-14.6
		c-0.4-1.7-0.9-3.7-1.5-6.1c-0.1-0.3-0.2-0.5-0.3-0.7c-0.1-0.2-0.2-0.4-0.3-0.6c-0.7,0.1-1.2,0.4-1.4,0.9c-0.2,0.5-0.3,0.8-0.3,0.9
		c-1.9,5.2-2.9,10.4-2.9,15.4c0,4.8,0.9,9.2,2.8,13.2c2.8,6.8,7.5,10.9,14,12.2c2.6,0.6,5.5,1,8.7,1c1.1,0,2.7-0.1,4.7-0.3
		c6.8-0.6,13.9-2.4,21.5-5.4c10.5-4.1,21.2-9.8,32.1-16.9c10.9-7.2,21.2-15.1,31-23.9c3.4-3,8.3-7.8,14.9-14.3
		c6.3-6.1,13.3-13.9,20.8-23.3c8.4-10.5,16.1-21.6,23.1-33.3c5.2-8.7,9.8-17.7,13.6-26.8c6.3-15.5,9.5-29.9,9.5-43.1
		c0-6.4-0.8-12.2-2.5-17.2c-2.4-7.9-7.1-14.3-14-19.3c-6.8-4.8-14.9-8.3-24.2-10.5c-6.7-1.6-13.3-2.3-19.7-2.3
		c-5.8,0-11.5,0.6-17.1,1.8c-7.3,1.6-15.1,4.2-23.3,7.8c-7.8,3.7-15,7.9-21.6,12.7c-8.4,5.8-16.3,12.8-23.5,21.1c-1,1.2-2,2.5-3,3.9
		L442.1,583.7z M425.7,705.7c2.8-13.4,5.3-24.3,7.6-32.8c2.4-9.2,5.7-20.2,9.9-33c4.3-12.9,9-25.3,14.2-37.2
		c2.3-5.3,4.3-9.7,5.9-13.3c1.7-3.5,3.4-7,5.4-10.4c1.3-2.1,3.3-5.3,6.1-9.5c0.6-1,1.3-1.7,1.9-2.1c0.4-0.4,1-0.4,1.8-0.1
		c0.5,0.2,0.7,0.5,0.7,0.8s0,0.5-0.1,0.7c-0.2,0.5-0.4,1-0.8,1.7c-0.3,0.7-0.8,1.5-1.3,2.4c-3,5.7-6,12-8.8,18.9l-4.3,10.5
		c-3.4,8.3-5.5,13.5-6.2,15.6c-3.2,8.4-6.3,17.2-9.2,26.3c-3.3,9.8-6.6,21.2-9.9,34.3c-4.1,15.3-7.2,31.3-9.4,47.9
		c-0.2,1.3-0.3,2.3-0.3,3c0,0.9,0.1,1.8,0.4,2.6c0.3,0.9,0.1,2.2-0.4,3.7c-0.2,0.7-0.7,1.3-1.7,1.7l-1.1,0.3c-0.8,0-1.6-0.3-2.2-0.8
		s-1.1-1.1-1.2-1.9c-0.2-0.9-0.3-1.6-0.3-2.1l0.1-1.4c0.1-0.9,0.2-2.5,0.3-4.7c0.1-2.2,0.3-4.2,0.6-6.1
		C423.9,718.2,424.6,713.2,425.7,705.7z"/>
	<path class="st1" d="M627.5,687.6c0.9,0,1.7,0.4,2.3,1.1c0,0.6,0,0.9-0.1,1c-1.7,1.7-4.3,3.7-7.7,5.9c-3.1,2-5.4,3.7-6.9,5.1
		c-1.4,1.2-5.3,5-11.8,11.3l-5.9,5.6c-2.5,2.4-5.8,5.1-10,8.1c-2.8,1.7-5.6,2.6-8.3,2.6c-2.3,0-4.4-0.7-6.4-2.1
		c-2-1.4-3.2-3.2-3.6-5.4c-0.7-2.9-1.1-5.6-1.1-8c0-2.9,0.3-5.7,0.8-8.3c0.6-2.6,1.4-6.3,2.6-11.1l0.7-2.1c0.2-0.5,0.3-1.2,0.4-2.3
		c0.1-1.1,0.3-1.9,0.5-2.5s0.7-1.1,1.4-1.4l1.8-3.2l1.7-3.2c0.6-1.3,1.8-3.2,3.4-5.8c1.7-2.3,3.1-4.1,4.4-5.4
		c1.1-1.1,2.4-2.2,3.9-3.4s2.6-2.1,3.2-2.6c0.6-0.5,1.6-1,2.9-1.5c1.3-0.4,2.3-0.6,3-0.6c2.3,0,4.2,0.8,5.8,2.3s2.4,3.5,2.4,6
		c0,1.7-0.3,3.2-0.8,4.4c-3.2,8.3-8,14.6-14.4,19.1c-3.7,2.7-6.9,4-9.8,4c-1,0-2-0.1-2.9-0.4h-0.4l-1.4,0.1
		c-1.9,6.1-2.9,12.2-2.9,18.3c0,2.1,0,3.7,0.1,4.7c0.2,1.8,0.6,3.3,1.1,4.3c0.7,1.7,1.6,2.5,2.6,2.5c0.3,0,0.8-0.2,1.5-0.6
		c2.9-1.5,5.1-2.8,6.5-4l8.7-7.4c2.3-2.1,4.6-4.1,6.9-6.1c6.1-5.2,12.1-10.4,17.9-15.4c1.4-1,3.3-2.1,5.8-3.3
		C626.3,687.7,627,687.6,627.5,687.6z M578.6,690.9c0,0.4,0.2,0.8,0.7,1.2c3.9-0.3,7.5-2,10.6-5.1c4.4-4.3,8.3-9.4,11.6-15.4
		c0.8-1.4,1.4-2.8,1.7-4.3c0.1-0.6,0.1-1.2,0.1-1.7s-0.1-1-0.1-1.4c-0.8-0.3-1.6-0.4-2.3-0.4c-1,0-1.9,0.3-2.6,0.8
		c-3.4,2.2-5.5,3.6-6.2,4.3c-2.9,2.5-5.4,5.4-7.4,8.9c-2,3.4-3.9,7.5-5.7,12.2C578.7,690.3,578.6,690.6,578.6,690.9z"/>
	<path class="st1" d="M682.1,691.8c-0.8,0.2-1.3,0.2-1.4,0.1c-1.1-0.6-2.2-0.8-3.3-0.8c-1,0-2,0.1-2.9,0.4
		c-5.7,1.5-9.8,2.8-12.4,4.1c-2.6,1.2-4.2,2.6-5,4s-1.4,3.5-2,6.3c-0.6,3-1.4,5.8-2.1,8.2c-0.8,2.4-2.2,5.3-4.2,8.6
		c-6.8,11-14,20.4-21.7,28.1c-3.6,3.6-6.9,6.3-10,8.1c-1.3,0.7-3.3,1.7-6.1,2.8c-0.6,0.3-1.3,0.4-1.9,0.4c-0.6,0-1.5-0.2-2.6-0.6
		c-1.8-0.6-3.1-1.4-3.9-2.2c-0.7-0.8-1.1-2-1.1-3.6c0-3.3,0.9-6.8,2.6-10.6c3.4-7.2,8.1-13.9,14-20.4c7.2-7.9,16.8-15.2,28.8-22
		l3.2-1.8c0-1.3,0-2.2-0.1-2.8c-0.3-1.9-1.3-3.2-3-3.7c-3.2-1.1-6.2-1.7-9.1-1.8l-6.6-0.3c-2.8-0.2-5-1.2-6.7-3.2
		c-0.7-0.9-1.1-1.7-1.1-2.3c0-0.7,0.3-1.5,1-2.2c1.3-1.7,2.5-2.9,3.7-3.9c6.2-5,11.9-8.7,17.1-11.3c0.3-0.1,1-0.5,2.2-1.1
		s2.4-1,3.7-1c1.6,0,2.6,0.6,3,1.8c-7.5,4.7-13,8.3-16.3,10.9c-3.4,2.6-5.9,5.1-7.8,7.6c0.2,0.6,0.7,0.8,1.7,0.8s3.8,0.2,8.4,0.7
		c3.7,0.4,6.3,0.8,8,1.3s3.5,1.8,5.5,3.8l1,0.7l2.5-1c3.1-1.4,6.7-2.8,10.9-4.1c1.6-0.6,3.9-1.1,7-1.7c1.1-0.2,2.1-0.1,3.1,0.3
		c1,0.4,2.1,1,3.4,1.8C681.4,690.4,681.7,690.9,682.1,691.8z M647.3,711.1c0.6-1.2,1-2.6,1.2-4.1c-2.5,1-6.4,3.5-11.7,7.4
		s-9.3,7.2-11.8,9.8c-5,5-9,9.9-12.2,14.9c-2.1,3.3-4,7.6-5.6,12.9c-0.2,0.7-0.3,1.6-0.3,2.6s0,1.7,0,1.9s0.1,0.6,0.4,1.1
		c0.3,0.5,0.5,0.9,0.7,1.2c0.6-0.4,1.2-0.7,2-1.1c0.8-0.4,1.4-0.7,1.9-1c1.3-0.9,3.1-2.4,5.5-4.4c3.3-2.8,7.2-7.2,11.8-12.9
		c3.9-4.9,7.2-9.4,10-13.5s5.2-8.4,7.2-12.8C646.4,713,646.7,712.3,647.3,711.1z"/>
	<path class="st1" d="M776.5,614.5c0.5,0.6,0.9,1.7,1.2,3.3c-1.1,0-1.9,0-2.3-0.1c-9.5-1.9-18.7-2.9-27.5-3
		c-14.1-0.2-24.7-0.3-31.8-0.3l-5.2,0.1c-0.2,0.5-0.4,0.9-0.7,1.3c-0.3,0.4-0.5,0.8-0.7,1.3c-2.4,5.7-5.8,14.3-10.2,25.9l-1,2.6
		c-6.2,16.2-11.1,30.5-14.6,42.8c-3.9,13.4-6.7,23.5-8.4,30.3c-1.6,5.9-3.1,12.2-4.5,19.1c-0.2,0.8-0.4,2.1-0.5,3.7
		c-0.1,0.5-0.1,1.2-0.1,2.2c0,1.5,0.3,2.6,1,3.4c-0.6,1-1.5,1.5-2.5,1.5c-0.5,0-1.2-0.2-2.3-0.6c-1.4-0.5-2.2-1.5-2.3-3.2l-0.1-1.5
		c0-0.6,0.1-1.3,0.3-2.2c0.3-1.3,0.7-3.7,1.4-7.3c0.7-3.9,1.4-7,1.9-9.2l1.2-5.2c2.9-11.5,5.4-20.6,7.3-27.5
		c4.9-16.8,9.9-31.6,15.1-44.4l4.4-11c2.3-6.1,4.8-12.3,7.4-18.6c0.2-0.5,0.5-1.5,1-3c-0.6-0.4-1.6-0.6-2.9-0.6
		c-3.6,0-8.9,0.1-16.1,0.3c-7.3,0.2-12.8,0.3-16.4,0.3c-0.6,0-1.6-0.1-2.9-0.3c-1-0.1-1.7-0.8-2.1-2.2c1.7-0.6,3.9-1.1,6.7-1.4
		c2.8-0.3,7.7-0.6,14.4-0.9l21.3-0.8c0.8-0.6,1.5-1.5,1.9-2.6c0.5-1.1,0.7-1.8,0.8-2.1c2.8-6.8,6.5-13.9,11.1-21.5
		c0.9-1.5,1.7-2.5,2.2-3c0.3-0.3,0.7-0.4,1.2-0.4c1,0,1.3,0.6,1,1.8l-0.7,1.9l-5.4,12.7l-3.3,7.4l-1.8,4.7c0.3,0.7,0.8,1.1,1.5,1.1
		c3.2,0,5.6,0,7.3-0.1c1.2,0,2.7,0,4.5-0.1c1.8,0,3.9,0,6.3,0.1l6.7,0.1c9.9,0.2,17.3,0.6,22.2,1.2c3.6,0.5,7.7,1.3,12.2,2.6
		C775.2,613.5,776,613.9,776.5,614.5z"/>
	<path class="st1" d="M705.4,680.2c0.2,0.3,0.3,0.8,0.1,1.6c-0.3,1.6-1,4.3-2.2,8.1c-1.4,4.6-2.6,9.2-3.6,14
		c-1.1,4.7-2.3,10.5-3.6,17.4c-0.1,0.5-0.1,1.2-0.1,2.2l0.1,4.7c-0.6,0.4-1.3,0.6-1.9,0.6c-0.7,0-1.4-0.3-2.1-0.8
		c-1.4-1.1-2-2.2-1.9-3.4c0.4-3.6,0.7-6.4,1-8.4c2.1-13.6,5.2-24.9,9.2-33.9c0.1-0.3,0.3-0.8,0.6-1.6s0.9-1.4,1.7-1.9
		c0.2,0.1,0.4,0.1,0.6,0.1c0.2,0,0.5,0.1,0.9,0.3C704.7,679.5,705.2,679.9,705.4,680.2z M711,667.5c0,0.7-0.3,1.3-0.8,1.7
		s-1.1,0.5-1.7,0.3c-1.4-0.6-2.3-1.5-2.9-2.9c-0.3-0.6-0.4-1.1-0.4-1.5c0-0.7,0.4-1.6,1.1-2.5c1.2,0.2,2.3,0.8,3.4,1.9
		C710.6,665.4,711,666.4,711,667.5z"/>
	<path class="st1" d="M753.5,731.3c1.3,0,2.2,0.4,2.8,1.2c-1,1.5-2.5,2.1-4.4,1.8c-5-0.8-8.2-3.1-9.5-6.7c-0.5-1.4-1-3.5-1.5-6.5
		c-0.5-2.9-0.7-5.5-0.7-7.7c0-3.9,0.5-8.2,1.4-12.9c0.6-3.6,1.8-8.9,3.4-16.1c0.6-1.8,0.9-3.4,1.1-4.8c0.1-0.6,0.1-1.2,0.1-1.7
		s-0.1-0.9-0.1-1.2c-0.9,0-1.6,0-1.9,0.1c-3.7,1.8-6.9,4.3-9.8,7.4c-5,5.9-9.5,12.3-13.2,19.3c-3.2,6.1-5.9,12.6-8,19.5
		c-0.4,1.5-1.1,2.2-2.2,2.2c-0.6,0-1.1-0.2-1.8-0.6c-1.3-0.6-1.9-1.4-1.9-2.2c0-0.6,0.1-1.2,0.3-1.7c0.4-1.4,0.9-3,1.5-4.8
		s1.1-3.2,1.4-4l1.9-5.6c2.8-8,5-14.3,6.9-19c0.4-1,0.7-1.9,1.1-2.6c0.4-0.7,0.7-1.4,1-1.9c1.3-2.5,2.2-4.7,2.8-6.7
		c0.3-1.1,0.9-1.7,1.9-1.7c0.2,0.6,0.3,1,0.3,1.2c0,0.6-0.2,1.4-0.6,2.5c-0.9,3.1-1.7,5.5-2.2,7l-0.4,3.3c0.3-0.4,0.7-0.8,1.2-1.3
		s0.8-0.9,1-1.3c2.5-3.7,6-7.2,10.6-10.7c1.2-0.9,2.8-1.9,4.7-2.9c0.8-0.4,1.7-0.6,2.8-0.6c1.5,0,3,0.6,4.5,1.7
		c2.8,2.2,4.1,5,3.7,8.3c-0.4,3.5-0.7,6.1-1.1,8c-1.7,7.2-2.8,13.2-3.3,17.8c-0.3,2.3-0.4,4.6-0.4,7c0,3.7,0.3,7.1,1,10.2
		c0.3,1.6,0.7,3,1.2,4.3c0.3,0.8,0.7,1.5,1.4,1.9c0.6,0.5,1.4,0.6,2.3,0.6L753.5,731.3L753.5,731.3z"/>
	<path class="st1" d="M822.8,690.5c0,0.2-0.1,0.4-0.2,0.5c-0.2,0.2-0.6,0.3-1.2,0.3c-0.3,0-0.5-0.1-0.7-0.3l-1-0.8
		c-2.4-2.4-5.2-3.7-8.5-4c-0.9-0.1-2.6-0.2-5.1-0.4s-4.8-0.3-6.9-0.3c0.1,0.3,0.1,0.6,0.1,1.1s0,0.8,0.1,1.1c1.2,3,1.8,6.1,1.8,9.2
		c0,4.8-1.5,10-4.5,15.6c-3.4,6.1-7.1,10.7-11,13.6c-2.4,1.7-4.5,3.1-6.5,4c-2.2,1-4.3,1.5-6.2,1.5c-3.3,0-6.2-1.1-8.7-3.3
		s-4.1-5.1-4.7-8.7c-0.2-0.8-0.3-2.2-0.3-4c0-5.9,1.6-12.5,4.7-20c1.9-4.6,3.7-8.4,5.4-11.4s3.6-5.7,5.9-8.2c2-2.2,3.8-3.8,5.4-4.7
		c0.7-0.5,1.3-0.7,1.8-0.7c0.6,0,1.1,0.3,1.5,1c0.6,0.8,1.3,1.5,2.3,2s1.6,0.9,2,1.2c0.7,0.5,3,2.1,6.9,5l10.6,1
		c2.5,0.2,4.5,0.5,6.2,1c5.2,1.6,8.9,4.3,10.9,8.1C822.8,690.1,822.8,690.3,822.8,690.5z M795.5,693.8c0-1.4-0.1-2.8-0.4-4.1
		c0-0.2-0.1-0.8-0.3-1.7c-0.2-1-0.6-1.9-1.4-2.7c-2.4,0-4.2,0-5.4-0.1c-2.4-0.2-4.4-0.6-6.1-1.1c-1.7-0.6-3.2-1.6-4.6-3
		c-1,1.2-1.6,1.9-1.7,2.1c-2.2,3.7-4.1,7.5-5.8,11.6c-2.4,5.7-4,11.7-4.8,18.2c-0.2,1.8-0.3,3.3-0.3,4.3c0,2.1,0.3,4.1,1,6.1
		c0.9,2.8,2.4,4.3,4.4,4.3c0.7,0,1.7-0.2,2.9-0.7c0.9-0.4,1.6-0.7,1.9-1c0.6-0.5,1.6-1.1,3-2.1c1.3-0.9,2.5-1.8,3.4-2.6
		c4.4-4.1,8-9,10.9-14.7C794.4,702.1,795.5,697.9,795.5,693.8z M787.1,679.6L787.1,679.6h-0.2H787.1z"/>
</g>
<g>
	<path class="st1" d="M310.8,1042.1h-14.6l-2.6,6c-0.6,1.5-1,2.5-1,3.3c0,0.6,0.3,1.1,0.8,1.5c0.6,0.4,1.7,0.7,3.6,0.8v1h-11.9v-1
		c1.6-0.3,2.6-0.6,3-1.1c0.9-0.9,2-2.7,3.1-5.4l13.3-31.1h1l13.2,31.5c1,2.5,2,4.1,2.9,4.9s2.1,1.2,3.6,1.3v1h-14.9v-1
		c1.5-0.1,2.5-0.3,3.1-0.7c0.5-0.4,0.8-1,0.8-1.6c0-0.8-0.4-2.1-1.1-3.8L310.8,1042.1z M310.1,1040.1l-6.4-15.3l-6.6,15.3H310.1z"/>
	<path class="st1" d="M360.3,1016.1l0.9,12.9h-0.9c-1.2-3.9-2.8-6.6-4.9-8.3c-2.1-1.7-4.7-2.5-7.7-2.5c-2.5,0-4.8,0.6-6.8,1.9
		c-2,1.3-3.6,3.3-4.8,6.1c-1.2,2.8-1.7,6.2-1.7,10.4c0,3.4,0.5,6.4,1.6,8.9c1.1,2.5,2.7,4.4,4.9,5.8c2.2,1.3,4.7,2,7.5,2
		c2.5,0,4.6-0.5,6.5-1.6c1.9-1,3.9-3.1,6.2-6.2l0.8,0.6c-1.9,3.4-4.1,5.8-6.6,7.4c-2.5,1.6-5.5,2.3-9,2.3c-6.3,0-11.1-2.3-14.5-7
		c-2.6-3.5-3.8-7.5-3.8-12.2c0-3.8,0.8-7.2,2.5-10.4c1.7-3.2,4-5.6,7-7.4c3-1.7,6.2-2.6,9.7-2.6c2.7,0,5.4,0.7,8.1,2
		c0.8,0.4,1.3,0.6,1.7,0.6c0.5,0,0.9-0.2,1.3-0.5c0.5-0.5,0.8-1.2,1-2.1H360.3z"/>
	<path class="st1" d="M398.4,1016.1l0.9,12.9h-0.9c-1.2-3.9-2.8-6.6-4.9-8.3c-2.1-1.7-4.7-2.5-7.7-2.5c-2.5,0-4.8,0.6-6.8,1.9
		c-2,1.3-3.6,3.3-4.8,6.1c-1.2,2.8-1.7,6.2-1.7,10.4c0,3.4,0.5,6.4,1.6,8.9c1.1,2.5,2.7,4.4,4.9,5.8c2.2,1.3,4.7,2,7.5,2
		c2.5,0,4.6-0.5,6.5-1.6c1.9-1,3.9-3.1,6.2-6.2l0.8,0.6c-1.9,3.4-4.1,5.8-6.6,7.4c-2.5,1.6-5.5,2.3-9,2.3c-6.3,0-11.1-2.3-14.5-7
		c-2.6-3.5-3.8-7.5-3.8-12.2c0-3.8,0.8-7.2,2.5-10.4c1.7-3.2,4-5.6,7-7.4c3-1.7,6.2-2.6,9.7-2.6c2.7,0,5.4,0.7,8.1,2
		c0.8,0.4,1.3,0.6,1.7,0.6c0.5,0,0.9-0.2,1.3-0.5c0.5-0.5,0.8-1.2,1-2.1H398.4z"/>
	<path class="st1" d="M414,1019.1v14.9h8.3c2.2,0,3.6-0.3,4.3-1c1-0.9,1.5-2.4,1.6-4.5h1v13.1h-1c-0.3-1.8-0.5-3-0.8-3.5
		c-0.3-0.7-0.9-1.2-1.6-1.6c-0.8-0.4-1.9-0.6-3.5-0.6H414v12.5c0,1.7,0.1,2.7,0.2,3.1c0.1,0.4,0.4,0.6,0.8,0.8
		c0.4,0.2,1.1,0.3,2.1,0.3h6.4c2.1,0,3.7-0.1,4.6-0.4c1-0.3,1.9-0.9,2.8-1.7c1.2-1.2,2.3-2.9,3.5-5.2h1.1l-3.3,9.5h-29.1v-1h1.3
		c0.9,0,1.8-0.2,2.6-0.6c0.6-0.3,1-0.7,1.2-1.3c0.2-0.6,0.3-1.8,0.3-3.6v-24.6c0-2.4-0.2-3.9-0.7-4.4c-0.7-0.7-1.8-1.1-3.4-1.1h-1.3
		v-1h29.1l0.4,8.3h-1.1c-0.4-2-0.8-3.4-1.3-4.1c-0.5-0.7-1.2-1.3-2.1-1.7c-0.8-0.3-2.1-0.4-3.9-0.4H414z"/>
	<path class="st1" d="M463.1,1016.1v13.1h-1c-0.3-2.5-0.9-4.5-1.8-6c-0.9-1.5-2.1-2.7-3.7-3.5c-1.6-0.9-3.3-1.3-5-1.3
		c-1.9,0-3.5,0.6-4.8,1.8c-1.3,1.2-1.9,2.5-1.9,4c0,1.2,0.4,2.2,1.2,3.1c1.2,1.4,3.9,3.3,8.2,5.6c3.5,1.9,5.9,3.3,7.2,4.4
		c1.3,1,2.3,2.2,3,3.6c0.7,1.4,1,2.8,1,4.3c0,2.9-1.1,5.3-3.3,7.4c-2.2,2.1-5.1,3.1-8.5,3.1c-1.1,0-2.1-0.1-3.1-0.2
		c-0.6-0.1-1.8-0.4-3.6-1c-1.8-0.6-3-0.9-3.4-0.9c-0.5,0-0.8,0.1-1.1,0.4c-0.3,0.3-0.5,0.9-0.6,1.7h-1v-12.9h1
		c0.5,2.7,1.1,4.7,2,6.1c0.8,1.3,2.1,2.5,3.8,3.4c1.7,0.9,3.5,1.3,5.5,1.3c2.3,0,4.1-0.6,5.5-1.8s2-2.7,2-4.4c0-0.9-0.3-1.9-0.8-2.8
		c-0.5-0.9-1.3-1.8-2.4-2.6c-0.7-0.6-2.7-1.7-5.9-3.5c-3.2-1.8-5.5-3.3-6.9-4.3c-1.4-1.1-2.4-2.3-3.1-3.6c-0.7-1.3-1.1-2.7-1.1-4.3
		c0-2.7,1-5.1,3.1-7c2.1-2,4.7-2.9,8-2.9c2,0,4.1,0.5,6.4,1.5c1,0.5,1.8,0.7,2.2,0.7c0.5,0,0.8-0.1,1.2-0.4c0.3-0.3,0.6-0.9,0.7-1.7
		H463.1z"/>
	<path class="st1" d="M489.5,1016.1c4.9,0,9.1,1.9,12.7,5.6c3.6,3.7,5.4,8.4,5.4,14c0,5.7-1.8,10.5-5.4,14.3
		c-3.6,3.8-8,5.7-13.1,5.7c-5.2,0-9.6-1.8-13.1-5.5c-3.5-3.7-5.3-8.5-5.3-14.4c0-6,2-10.9,6.1-14.7
		C480.3,1017.8,484.6,1016.1,489.5,1016.1z M489,1018.2c-3.4,0-6.1,1.3-8.1,3.8c-2.6,3.1-3.8,7.7-3.8,13.7c0,6.2,1.3,10.9,4,14.2
		c2,2.5,4.7,3.8,8,3.8c3.6,0,6.5-1.4,8.8-4.2c2.3-2.8,3.5-7.1,3.5-13.1c0-6.5-1.3-11.3-3.8-14.5
		C495.4,1019.4,492.6,1018.2,489,1018.2z"/>
	<path class="st1" d="M556.9,1017l-24.8,35.5h15.5c2.4,0,4.2-0.5,5.5-1.6c1.3-1,2.4-3.1,3.4-6.3l0.9,0.2l-1.8,10h-30.8v-1l24.2-34.5
		H537c-2,0-3.5,0.2-4.4,0.6s-1.6,1.1-2.1,1.9c-0.5,0.8-0.9,2.4-1.3,4.6h-1.1l0.8-9.4H556.9z"/>
	<path class="st1" d="M579.8,1016.1c4.9,0,9.1,1.9,12.7,5.6c3.6,3.7,5.4,8.4,5.4,14c0,5.7-1.8,10.5-5.4,14.3
		c-3.6,3.8-8,5.7-13.1,5.7c-5.2,0-9.6-1.8-13.1-5.5c-3.5-3.7-5.3-8.5-5.3-14.4c0-6,2-10.9,6.1-14.7
		C570.7,1017.8,574.9,1016.1,579.8,1016.1z M579.3,1018.2c-3.4,0-6.1,1.3-8.1,3.8c-2.6,3.1-3.8,7.7-3.8,13.7c0,6.2,1.3,10.9,4,14.2
		c2,2.5,4.7,3.8,8,3.8c3.6,0,6.5-1.4,8.8-4.2c2.3-2.8,3.5-7.1,3.5-13.1c0-6.5-1.3-11.3-3.8-14.5
		C585.7,1019.4,582.9,1018.2,579.3,1018.2z"/>
	<path class="st1" d="M611.9,1019.1v14.8h6.9c1.6,0,2.8-0.3,3.5-1c0.7-0.7,1.2-2.1,1.5-4.2h1v12.8h-1c0-1.5-0.2-2.6-0.6-3.2
		c-0.4-0.7-0.9-1.2-1.5-1.5c-0.6-0.3-1.6-0.5-2.9-0.5h-6.9v11.9c0,1.9,0.1,3.2,0.4,3.8c0.2,0.5,0.6,0.9,1.2,1.2
		c0.8,0.4,1.7,0.7,2.6,0.7h1.3v1h-16.2v-1h1.3c1.6,0,2.7-0.5,3.4-1.3c0.5-0.6,0.7-2,0.7-4.3v-24.4c0-1.9-0.1-3.2-0.4-3.8
		c-0.2-0.5-0.6-0.9-1.1-1.2c-0.8-0.5-1.6-0.7-2.6-0.7h-1.3v-1h28.1l0.3,8.3h-1c-0.5-1.8-1-3-1.7-3.9c-0.6-0.8-1.4-1.4-2.4-1.8
		s-2.4-0.6-4.4-0.6H611.9z"/>
	<path class="st1" d="M643.9,1019.1v14.9h8.3c2.2,0,3.6-0.3,4.3-1c1-0.9,1.5-2.4,1.6-4.5h1v13.1h-1c-0.3-1.8-0.5-3-0.8-3.5
		c-0.3-0.7-0.9-1.2-1.6-1.6c-0.8-0.4-1.9-0.6-3.5-0.6h-8.3v12.5c0,1.7,0.1,2.7,0.2,3.1c0.1,0.4,0.4,0.6,0.8,0.8
		c0.4,0.2,1.1,0.3,2.1,0.3h6.4c2.1,0,3.7-0.1,4.6-0.4c1-0.3,1.9-0.9,2.8-1.7c1.2-1.2,2.3-2.9,3.5-5.2h1.1l-3.3,9.5h-29.1v-1h1.3
		c0.9,0,1.8-0.2,2.6-0.6c0.6-0.3,1-0.7,1.2-1.3c0.2-0.6,0.3-1.8,0.3-3.6v-24.6c0-2.4-0.2-3.9-0.7-4.4c-0.7-0.7-1.8-1.1-3.4-1.1h-1.3
		v-1h29.1l0.4,8.3h-1.1c-0.4-2-0.8-3.4-1.3-4.1c-0.5-0.7-1.2-1.3-2.1-1.7c-0.8-0.3-2.1-0.4-3.9-0.4H643.9z"/>
	<path class="st1" d="M690.1,1054.8l-14.6-31.8v25.3c0,2.3,0.3,3.7,0.8,4.3c0.7,0.8,1.8,1.2,3.3,1.2h1.3v1h-13.1v-1h1.3
		c1.6,0,2.7-0.5,3.4-1.5c0.4-0.6,0.6-1.9,0.6-4v-24.7c0-1.7-0.2-2.9-0.6-3.6c-0.3-0.5-0.7-1-1.4-1.3c-0.7-0.4-1.8-0.6-3.4-0.6v-1
		h10.7l13.7,29.6l13.5-29.6h10.7v1H715c-1.6,0-2.8,0.5-3.4,1.5c-0.4,0.6-0.6,2-0.6,4.1v24.7c0,2.3,0.3,3.7,0.8,4.3
		c0.7,0.8,1.8,1.2,3.3,1.2h1.3v1h-16v-1h1.3c1.6,0,2.7-0.5,3.4-1.5c0.4-0.6,0.6-1.9,0.6-4V1023l-14.6,31.8H690.1z"/>
	<path class="st1" d="M743.6,1042.1H729l-2.6,6c-0.6,1.5-1,2.5-1,3.3c0,0.6,0.3,1.1,0.8,1.5c0.6,0.4,1.7,0.7,3.6,0.8v1H718v-1
		c1.6-0.3,2.6-0.6,3-1.1c0.9-0.9,2-2.7,3.1-5.4l13.3-31.1h1l13.2,31.5c1,2.5,2,4.1,2.9,4.9c0.9,0.7,2.1,1.2,3.6,1.3v1h-14.9v-1
		c1.5-0.1,2.5-0.3,3.1-0.7c0.5-0.4,0.8-1,0.8-1.6c0-0.8-0.4-2.1-1.1-3.8L743.6,1042.1z M742.8,1040.1l-6.4-15.3l-6.6,15.3H742.8z"/>
	<path class="st1" d="M791.7,1017l0.4,8.9h-1.1c-0.2-1.5-0.5-2.7-0.8-3.3c-0.6-1.1-1.3-1.9-2.3-2.4c-1-0.5-2.2-0.8-3.8-0.8h-5.3
		v28.9c0,2.3,0.3,3.7,0.8,4.3c0.7,0.8,1.8,1.2,3.3,1.2h1.3v1h-16v-1h1.3c1.6,0,2.7-0.5,3.4-1.5c0.4-0.6,0.6-1.9,0.6-4v-28.9H769
		c-1.8,0-3,0.1-3.7,0.4c-1,0.3-1.8,1-2.5,2c-0.7,1-1.1,2.4-1.2,4.1h-1.1l0.5-8.9H791.7z"/>
	<path class="st1" d="M811,1055.6l2.6-12.7h-4.7v-2.3h5.2l1.9-9.6h-7.1v-2.2h7.6l2.5-12.7h2.3l-2.5,12.7h9.4l2.7-12.7h2.3l-2.6,12.7
		h4.7v2.2h-5.2l-2,9.6h7.1v2.3h-7.6l-2.6,12.7h-2.2l2.5-12.7H816l-2.7,12.7H811z M816.4,1040.6h9.4l2-9.6h-9.5L816.4,1040.6z"/>
	<path class="st1" d="M839.2,1024.2c1.1-2.5,2.4-4.5,4.1-5.9c1.6-1.4,3.7-2.1,6.1-2.1c3,0,5.3,1,7,2.9c1.2,1.5,1.9,3,1.9,4.7
		c0,2.7-1.7,5.6-5.2,8.5c2.3,0.9,4.1,2.2,5.2,3.9c1.2,1.7,1.8,3.7,1.8,6c0,3.3-1,6.1-3.1,8.5c-2.7,3.1-6.6,4.7-11.8,4.7
		c-2.5,0-4.3-0.3-5.2-0.9c-0.9-0.6-1.4-1.3-1.4-2c0-0.5,0.2-1,0.7-1.4c0.4-0.4,1-0.6,1.6-0.6c0.5,0,0.9,0.1,1.4,0.2
		c0.3,0.1,1,0.4,2.2,1c1.1,0.6,1.9,0.9,2.3,1c0.7,0.2,1.4,0.3,2.2,0.3c1.9,0,3.5-0.7,4.9-2.2c1.4-1.5,2.1-3.2,2.1-5.2
		c0-1.5-0.3-2.9-1-4.3c-0.5-1-1-1.8-1.6-2.4c-0.8-0.7-1.9-1.4-3.3-2c-1.4-0.6-2.8-0.9-4.3-0.9H845v-0.8c1.5-0.2,3-0.7,4.4-1.6
		c1.5-0.9,2.5-1.9,3.2-3.1c0.7-1.2,1-2.6,1-4c0-1.9-0.6-3.5-1.8-4.7c-1.2-1.2-2.7-1.8-4.5-1.8c-2.9,0-5.3,1.5-7.2,4.6L839.2,1024.2z
		"/>
	<path class="st1" d="M891,1047.5l-2.7,7.3h-22.3v-1c6.6-6,11.2-10.9,13.9-14.6c2.7-3.8,4-7.2,4-10.4c0-2.4-0.7-4.4-2.2-5.9
		s-3.2-2.3-5.2-2.3c-1.9,0-3.5,0.5-5,1.6c-1.5,1.1-2.6,2.7-3.3,4.8h-1c0.5-3.4,1.7-6.1,3.6-7.9c1.9-1.8,4.3-2.8,7.2-2.8
		c3.1,0,5.6,1,7.7,3c2.1,2,3.1,4.3,3.1,6.9c0,1.9-0.4,3.8-1.3,5.7c-1.4,3-3.6,6.2-6.7,9.6c-4.6,5.1-7.5,8.1-8.7,9.1h9.9
		c2,0,3.4-0.1,4.2-0.2c0.8-0.1,1.5-0.4,2.2-0.9c0.6-0.5,1.2-1.1,1.7-1.9H891z"/>
	<path class="st1" d="M896.3,1024.2c1.1-2.5,2.4-4.5,4.1-5.9c1.6-1.4,3.7-2.1,6.1-2.1c3,0,5.3,1,7,2.9c1.2,1.5,1.9,3,1.9,4.7
		c0,2.7-1.7,5.6-5.2,8.5c2.3,0.9,4.1,2.2,5.2,3.9c1.2,1.7,1.8,3.7,1.8,6c0,3.3-1,6.1-3.1,8.5c-2.7,3.1-6.6,4.7-11.8,4.7
		c-2.5,0-4.3-0.3-5.2-0.9c-0.9-0.6-1.4-1.3-1.4-2c0-0.5,0.2-1,0.7-1.4c0.4-0.4,1-0.6,1.6-0.6c0.5,0,0.9,0.1,1.4,0.2
		c0.3,0.1,1,0.4,2.2,1c1.1,0.6,1.9,0.9,2.3,1c0.7,0.2,1.4,0.3,2.2,0.3c1.9,0,3.5-0.7,4.9-2.2c1.4-1.5,2.1-3.2,2.1-5.2
		c0-1.5-0.3-2.9-1-4.3c-0.5-1-1-1.8-1.6-2.4c-0.8-0.7-1.9-1.4-3.3-2c-1.4-0.6-2.8-0.9-4.3-0.9H902v-0.8c1.5-0.2,3-0.7,4.4-1.6
		c1.5-0.9,2.5-1.9,3.2-3.1c0.7-1.2,1-2.6,1-4c0-1.9-0.6-3.5-1.8-4.7c-1.2-1.2-2.7-1.8-4.5-1.8c-2.9,0-5.3,1.5-7.2,4.6L896.3,1024.2z
		"/>
	<path class="st1" d="M924,1036.1c0-4.3,0.6-8,1.9-11.1c1.3-3.1,3-5.4,5.2-7c1.7-1.2,3.4-1.8,5.2-1.8c2.9,0,5.5,1.5,7.8,4.4
		c2.9,3.6,4.3,8.6,4.3,14.9c0,4.4-0.6,8.1-1.9,11.2c-1.3,3.1-2.9,5.3-4.8,6.7c-2,1.4-3.9,2.1-5.7,2.1c-3.6,0-6.6-2.1-9-6.4
		C925,1045.5,924,1041.2,924,1036.1z M929.4,1036.8c0,5.2,0.6,9.4,1.9,12.7c1.1,2.8,2.6,4.2,4.7,4.2c1,0,2-0.5,3.1-1.3
		c1.1-0.9,1.9-2.4,2.5-4.5c0.9-3.2,1.3-7.7,1.3-13.5c0-4.3-0.4-7.9-1.3-10.8c-0.7-2.1-1.5-3.7-2.6-4.5c-0.8-0.6-1.7-0.9-2.7-0.9
		c-1.3,0-2.4,0.6-3.4,1.7c-1.3,1.5-2.2,4-2.7,7.3C929.6,1030.4,929.4,1033.6,929.4,1036.8z"/>
	<path class="st1" d="M953.5,1064.3v-1.2c1.9-0.6,3.4-1.6,4.4-2.9c1-1.3,1.6-2.7,1.6-4.2c0-0.3-0.1-0.6-0.2-0.9
		c-0.1-0.2-0.2-0.2-0.4-0.2c-0.2,0-0.7,0.2-1.3,0.6c-0.3,0.2-0.7,0.3-1,0.3c-0.9,0-1.6-0.3-2.2-0.8c-0.5-0.5-0.8-1.3-0.8-2.2
		c0-0.9,0.3-1.7,1-2.4c0.7-0.6,1.5-1,2.5-1c1.2,0,2.3,0.5,3.3,1.6c0.9,1.1,1.4,2.5,1.4,4.2c0,1.9-0.7,3.7-2,5.3
		C958.4,1062,956.3,1063.3,953.5,1064.3z"/>
	<path class="st1" d="M189.3,1151v1c-2.8-1.4-5.2-3.1-7-5c-2.7-2.7-4.7-5.8-6.2-9.5c-1.4-3.7-2.2-7.5-2.2-11.4
		c0-5.8,1.4-11,4.3-15.8c2.8-4.7,6.5-8.1,11.1-10.2v1.2c-2.3,1.3-4.2,3-5.6,5.2c-1.5,2.2-2.6,5-3.3,8.3c-0.7,3.4-1.1,6.9-1.1,10.5
		c0,4,0.3,7.6,0.9,10.8c0.5,2.6,1,4.6,1.7,6.2c0.7,1.5,1.6,3,2.8,4.5C185.9,1148.3,187.4,1149.7,189.3,1151z"/>
	<path class="st1" d="M216.7,1127.2h-14.6l-2.6,6c-0.6,1.5-1,2.5-1,3.3c0,0.6,0.3,1.1,0.8,1.5c0.6,0.4,1.7,0.7,3.6,0.8v1H191v-1
		c1.6-0.3,2.6-0.6,3-1.1c0.9-0.9,2-2.7,3.1-5.4l13.3-31.1h1l13.2,31.5c1,2.5,2,4.1,2.9,4.9c0.9,0.7,2.1,1.2,3.6,1.3v1h-14.9v-1
		c1.5-0.1,2.5-0.3,3.1-0.7c0.5-0.4,0.8-1,0.8-1.6c0-0.8-0.4-2.1-1.1-3.8L216.7,1127.2z M215.9,1125.1l-6.4-15.3l-6.6,15.3H215.9z"/>
	<path class="st1" d="M242.4,1100.2v33.8c0,1.6,0.1,2.7,0.3,3.2c0.2,0.5,0.6,0.9,1.1,1.2c0.5,0.3,1.4,0.4,2.7,0.4v1H234v-1
		c1.2,0,2-0.1,2.4-0.4c0.4-0.2,0.8-0.6,1-1.2c0.2-0.6,0.3-1.6,0.3-3.2v-23.2c0-2.9-0.1-4.7-0.2-5.3c-0.1-0.7-0.3-1.1-0.6-1.3
		s-0.7-0.4-1.1-0.4c-0.5,0-1.1,0.2-1.8,0.4l-0.5-1l7.6-3.1H242.4z"/>
	<path class="st1" d="M273.7,1116.3v16.8c0,2.4,0.3,3.9,0.8,4.5c0.7,0.8,1.6,1.2,2.8,1.2h2.3v1h-15.3v-1h1.1c0.8,0,1.4-0.2,2.1-0.6
		c0.6-0.4,1-0.9,1.3-1.5c0.2-0.6,0.3-1.9,0.3-3.7v-16.8h-4.9v-2h4.9v-1.7c0-2.5,0.4-4.7,1.2-6.5c0.8-1.8,2.1-3.2,3.7-4.3
		c1.7-1.1,3.6-1.6,5.7-1.6c2,0,3.8,0.6,5.4,1.9c1.1,0.8,1.6,1.8,1.6,2.8c0,0.6-0.2,1.1-0.7,1.6c-0.5,0.5-1,0.7-1.6,0.7
		c-0.4,0-0.9-0.2-1.3-0.5c-0.5-0.3-1.1-1-1.7-2c-0.7-1-1.3-1.7-1.9-2c-0.6-0.3-1.2-0.5-1.9-0.5c-0.9,0-1.6,0.2-2.2,0.7
		c-0.6,0.5-1,1.2-1.3,2.1c-0.3,1-0.4,3.4-0.4,7.4v1.9h6.6v2H273.7z"/>
	<path class="st1" d="M291.5,1113.6v20.5c0,1.6,0.1,2.7,0.3,3.2c0.2,0.5,0.6,0.9,1,1.2c0.4,0.3,1.3,0.4,2.5,0.4v1H283v-1
		c1.2,0,2.1-0.1,2.5-0.4c0.4-0.2,0.8-0.6,1-1.2c0.2-0.6,0.4-1.6,0.4-3.2v-9.8c0-2.8-0.1-4.6-0.2-5.4c-0.1-0.6-0.3-1-0.6-1.2
		c-0.3-0.2-0.7-0.3-1.1-0.3c-0.5,0-1.1,0.1-1.9,0.4l-0.4-1l7.7-3.1H291.5z M289.2,1100.2c0.8,0,1.4,0.3,2,0.8c0.5,0.6,0.8,1.2,0.8,2
		c0,0.8-0.3,1.4-0.8,2c-0.5,0.6-1.2,0.8-2,0.8c-0.8,0-1.5-0.3-2-0.8c-0.6-0.6-0.8-1.2-0.8-2c0-0.8,0.3-1.5,0.8-2
		C287.7,1100.5,288.4,1100.2,289.2,1100.2z"/>
	<path class="st1" d="M306,1119c3-3.6,5.9-5.4,8.6-5.4c1.4,0,2.6,0.3,3.6,1c1,0.7,1.8,1.8,2.4,3.4c0.4,1.1,0.6,2.8,0.6,5.2v10.9
		c0,1.6,0.1,2.7,0.4,3.3c0.2,0.5,0.5,0.8,1,1.1s1.3,0.4,2.5,0.4v1h-12.6v-1h0.6c1.2,0,2-0.2,2.5-0.5c0.5-0.4,0.8-0.9,1-1.6
		c0.1-0.3,0.1-1.2,0.1-2.6v-10.5c0-2.3-0.3-4-0.9-5c-0.6-1-1.6-1.6-3.1-1.6c-2.2,0-4.4,1.2-6.6,3.6v13.4c0,1.7,0.1,2.8,0.3,3.2
		c0.3,0.5,0.6,0.9,1.1,1.2c0.4,0.3,1.4,0.4,2.8,0.4v1h-12.6v-1h0.6c1.3,0,2.2-0.3,2.6-1c0.5-0.7,0.7-1.9,0.7-3.8v-9.4
		c0-3.1-0.1-4.9-0.2-5.6s-0.4-1.1-0.6-1.4c-0.3-0.2-0.7-0.4-1.2-0.4c-0.5,0-1.2,0.1-1.9,0.4l-0.4-1l7.7-3.1h1.2V1119z"/>
	<path class="st1" d="M341.5,1136.2c-2.6,2-4.2,3.2-4.9,3.5c-1,0.5-2.1,0.7-3.2,0.7c-1.8,0-3.2-0.6-4.3-1.8
		c-1.1-1.2-1.7-2.8-1.7-4.8c0-1.2,0.3-2.3,0.8-3.2c0.8-1.3,2.1-2.5,4-3.6c1.9-1.1,5-2.5,9.4-4.1v-1c0-2.5-0.4-4.3-1.2-5.2
		c-0.8-0.9-2-1.4-3.5-1.4c-1.2,0-2.1,0.3-2.8,0.9c-0.7,0.6-1.1,1.4-1.1,2.2l0.1,1.6c0,0.9-0.2,1.5-0.7,2c-0.4,0.5-1,0.7-1.7,0.7
		c-0.7,0-1.3-0.2-1.7-0.7c-0.4-0.5-0.7-1.1-0.7-2c0-1.6,0.8-3.1,2.5-4.4c1.6-1.3,3.9-2,6.9-2c2.3,0,4.1,0.4,5.6,1.1
		c1.1,0.6,1.9,1.5,2.4,2.7c0.3,0.8,0.5,2.4,0.5,4.9v8.7c0,2.4,0,3.9,0.1,4.5c0.1,0.6,0.2,0.9,0.5,1.1c0.2,0.2,0.5,0.3,0.7,0.3
		c0.3,0,0.6-0.1,0.8-0.2c0.4-0.2,1.2-0.9,2.3-2v1.6c-2.1,2.8-4.1,4.2-6,4.2c-0.9,0-1.6-0.3-2.2-0.9
		C341.8,1138.8,341.5,1137.7,341.5,1136.2z M341.5,1134.3v-9.7c-2.8,1.1-4.6,1.9-5.4,2.4c-1.5,0.8-2.5,1.7-3.1,2.6
		c-0.6,0.9-1,1.9-1,2.9c0,1.3,0.4,2.5,1.2,3.3c0.8,0.9,1.7,1.3,2.8,1.3C337.3,1137.1,339.2,1136.2,341.5,1134.3z"/>
	<path class="st1" d="M361.2,1100.2v33.8c0,1.6,0.1,2.7,0.3,3.2c0.2,0.5,0.6,0.9,1.1,1.2c0.5,0.3,1.4,0.4,2.7,0.4v1h-12.5v-1
		c1.2,0,2-0.1,2.4-0.4c0.4-0.2,0.8-0.6,1-1.2c0.2-0.6,0.3-1.6,0.3-3.2v-23.2c0-2.9-0.1-4.7-0.2-5.3c-0.1-0.7-0.3-1.1-0.6-1.3
		c-0.3-0.2-0.7-0.4-1.1-0.4c-0.5,0-1.1,0.2-1.8,0.4l-0.5-1l7.6-3.1H361.2z"/>
	<path class="st1" d="M400.5,1137c-1.2,1.3-2.5,2.2-3.7,2.8c-1.2,0.6-2.5,0.9-3.8,0.9c-2.8,0-5.2-1.2-7.3-3.5
		c-2.1-2.3-3.1-5.3-3.1-9c0-3.7,1.1-7,3.4-10.1c2.3-3,5.3-4.6,8.9-4.6c2.3,0,4.1,0.7,5.6,2.1v-4.7c0-2.9-0.1-4.7-0.2-5.4
		c-0.1-0.7-0.4-1.1-0.6-1.4c-0.3-0.2-0.7-0.4-1.1-0.4c-0.5,0-1.1,0.2-1.9,0.4l-0.4-1l7.6-3.1h1.2v29.5c0,3,0.1,4.8,0.2,5.5
		c0.1,0.7,0.4,1.1,0.7,1.4c0.3,0.3,0.7,0.4,1.1,0.4c0.5,0,1.1-0.2,2-0.5l0.3,1l-7.6,3.1h-1.3V1137z M400.5,1135v-13.1
		c-0.1-1.3-0.4-2.4-1-3.5c-0.6-1-1.3-1.8-2.2-2.4c-0.9-0.5-1.8-0.8-2.7-0.8c-1.6,0-3.1,0.7-4.4,2.2c-1.7,1.9-2.5,4.7-2.5,8.4
		c0,3.8,0.8,6.6,2.5,8.6c1.6,2,3.5,3,5.5,3C397.3,1137.5,398.9,1136.7,400.5,1135z"/>
	<path class="st1" d="M415.3,1123.9c0,3.8,0.9,6.8,2.8,8.9c1.9,2.1,4,3.2,6.5,3.2c1.7,0,3.1-0.5,4.4-1.4c1.2-0.9,2.3-2.5,3.1-4.7
		l0.9,0.6c-0.4,2.5-1.5,4.9-3.4,7c-1.9,2.1-4.2,3.1-7.1,3.1c-3.1,0-5.7-1.2-7.9-3.6c-2.2-2.4-3.3-5.6-3.3-9.6
		c0-4.4,1.1-7.8,3.4-10.2c2.2-2.4,5.1-3.7,8.4-3.7c2.9,0,5.2,0.9,7,2.8c1.8,1.9,2.8,4.4,2.8,7.6H415.3z M415.3,1122.3h11.8
		c-0.1-1.6-0.3-2.8-0.6-3.5c-0.5-1-1.2-1.9-2.1-2.5c-0.9-0.6-1.9-0.9-2.9-0.9c-1.5,0-2.9,0.6-4.2,1.8
		C416.2,1118.5,415.5,1120.2,415.3,1122.3z"/>
	<path class="st1" d="M472.3,1130.1c-0.7,3.4-2,6-4,7.8c-2,1.8-4.2,2.7-6.6,2.7c-2.9,0-5.4-1.2-7.6-3.7c-2.2-2.4-3.2-5.7-3.2-9.9
		c0-4,1.2-7.3,3.6-9.8c2.4-2.5,5.3-3.8,8.6-3.8c2.5,0,4.6,0.7,6.2,2c1.6,1.3,2.4,2.7,2.4,4.1c0,0.7-0.2,1.3-0.7,1.7
		c-0.5,0.4-1.1,0.6-1.9,0.6c-1.1,0-1.9-0.3-2.5-1c-0.3-0.4-0.5-1.1-0.6-2.2c-0.1-1.1-0.5-1.9-1.1-2.5c-0.7-0.6-1.6-0.8-2.7-0.8
		c-1.9,0-3.4,0.7-4.5,2c-1.5,1.8-2.3,4.2-2.3,7.2c0,3,0.7,5.7,2.2,8.1c1.5,2.3,3.5,3.5,6.1,3.5c1.8,0,3.4-0.6,4.9-1.9
		c1-0.9,2-2.4,3-4.6L472.3,1130.1z"/>
	<path class="st1" d="M490.4,1136.2c-2.6,2-4.2,3.2-4.9,3.5c-1,0.5-2.1,0.7-3.2,0.7c-1.8,0-3.2-0.6-4.3-1.8
		c-1.1-1.2-1.7-2.8-1.7-4.8c0-1.2,0.3-2.3,0.8-3.2c0.8-1.3,2.1-2.5,4-3.6c1.9-1.1,5-2.5,9.4-4.1v-1c0-2.5-0.4-4.3-1.2-5.2
		c-0.8-0.9-2-1.4-3.5-1.4c-1.2,0-2.1,0.3-2.8,0.9c-0.7,0.6-1.1,1.4-1.1,2.2l0.1,1.6c0,0.9-0.2,1.5-0.7,2c-0.4,0.5-1,0.7-1.7,0.7
		s-1.3-0.2-1.7-0.7c-0.4-0.5-0.7-1.1-0.7-2c0-1.6,0.8-3.1,2.5-4.4c1.6-1.3,3.9-2,6.9-2c2.3,0,4.1,0.4,5.6,1.1
		c1.1,0.6,1.9,1.5,2.4,2.7c0.3,0.8,0.5,2.4,0.5,4.9v8.7c0,2.4,0,3.9,0.1,4.5c0.1,0.6,0.2,0.9,0.5,1.1c0.2,0.2,0.5,0.3,0.7,0.3
		c0.3,0,0.6-0.1,0.8-0.2c0.4-0.2,1.2-0.9,2.3-2v1.6c-2.1,2.8-4.1,4.2-6,4.2c-0.9,0-1.6-0.3-2.2-0.9
		C490.7,1138.8,490.4,1137.7,490.4,1136.2z M490.4,1134.3v-9.7c-2.8,1.1-4.6,1.9-5.4,2.4c-1.5,0.8-2.5,1.7-3.1,2.6
		c-0.6,0.9-1,1.9-1,2.9c0,1.3,0.4,2.5,1.2,3.3s1.7,1.3,2.8,1.3C486.2,1137.1,488.1,1136.2,490.4,1134.3z"/>
	<path class="st1" d="M510,1100.2v33.8c0,1.6,0.1,2.7,0.3,3.2c0.2,0.5,0.6,0.9,1.1,1.2c0.5,0.3,1.4,0.4,2.7,0.4v1h-12.5v-1
		c1.2,0,2-0.1,2.4-0.4c0.4-0.2,0.8-0.6,1-1.2c0.2-0.6,0.3-1.6,0.3-3.2v-23.2c0-2.9-0.1-4.7-0.2-5.3c-0.1-0.7-0.3-1.1-0.6-1.3
		c-0.3-0.2-0.7-0.4-1.1-0.4c-0.5,0-1.1,0.2-1.8,0.4l-0.5-1l7.6-3.1H510z"/>
	<path class="st1" d="M525.9,1100.2v33.8c0,1.6,0.1,2.7,0.3,3.2c0.2,0.5,0.6,0.9,1.1,1.2c0.5,0.3,1.4,0.4,2.7,0.4v1h-12.5v-1
		c1.2,0,2-0.1,2.4-0.4s0.8-0.6,1-1.2c0.2-0.6,0.3-1.6,0.3-3.2v-23.2c0-2.9-0.1-4.7-0.2-5.3c-0.1-0.7-0.3-1.1-0.6-1.3
		s-0.7-0.4-1.1-0.4c-0.5,0-1.1,0.2-1.8,0.4l-0.5-1l7.6-3.1H525.9z"/>
	<path class="st1" d="M537.2,1123.9c0,3.8,0.9,6.8,2.8,8.9c1.9,2.1,4,3.2,6.5,3.2c1.7,0,3.1-0.5,4.4-1.4c1.2-0.9,2.3-2.5,3.1-4.7
		l0.9,0.6c-0.4,2.5-1.5,4.9-3.4,7s-4.2,3.1-7.1,3.1c-3.1,0-5.7-1.2-7.9-3.6c-2.2-2.4-3.3-5.6-3.3-9.6c0-4.4,1.1-7.8,3.4-10.2
		c2.2-2.4,5.1-3.7,8.4-3.7c2.9,0,5.2,0.9,7,2.8c1.8,1.9,2.8,4.4,2.8,7.6H537.2z M537.2,1122.3h11.8c-0.1-1.6-0.3-2.8-0.6-3.5
		c-0.5-1-1.2-1.9-2.1-2.5c-0.9-0.6-1.9-0.9-2.9-0.9c-1.5,0-2.9,0.6-4.2,1.8C538.2,1118.5,537.4,1120.2,537.2,1122.3z"/>
	<path class="st1" d="M596.9,1101.2v13.1h-1c-0.3-2.5-0.9-4.5-1.8-6c-0.9-1.5-2.1-2.7-3.7-3.5c-1.6-0.9-3.3-1.3-5-1.3
		c-1.9,0-3.5,0.6-4.8,1.8c-1.3,1.2-1.9,2.5-1.9,4c0,1.2,0.4,2.2,1.2,3.1c1.2,1.4,3.9,3.3,8.2,5.6c3.5,1.9,5.9,3.3,7.2,4.4
		c1.3,1,2.3,2.2,3,3.6c0.7,1.4,1,2.8,1,4.3c0,2.9-1.1,5.3-3.3,7.4c-2.2,2.1-5.1,3.1-8.5,3.1c-1.1,0-2.1-0.1-3.1-0.2
		c-0.6-0.1-1.8-0.4-3.6-1c-1.8-0.6-3-0.9-3.4-0.9c-0.5,0-0.8,0.1-1.1,0.4c-0.3,0.3-0.5,0.9-0.6,1.7h-1v-12.9h1
		c0.5,2.7,1.1,4.7,2,6.1c0.8,1.3,2.1,2.5,3.8,3.4c1.7,0.9,3.5,1.3,5.5,1.3c2.3,0,4.1-0.6,5.5-1.8c1.3-1.2,2-2.7,2-4.4
		c0-0.9-0.3-1.9-0.8-2.8c-0.5-0.9-1.3-1.8-2.4-2.6c-0.7-0.6-2.7-1.7-5.9-3.5c-3.2-1.8-5.5-3.3-6.9-4.3c-1.4-1.1-2.4-2.3-3.1-3.6
		c-0.7-1.3-1.1-2.7-1.1-4.3c0-2.7,1-5.1,3.1-7c2.1-2,4.7-2.9,8-2.9c2,0,4.1,0.5,6.4,1.5c1,0.5,1.8,0.7,2.2,0.7
		c0.5,0,0.8-0.1,1.2-0.4c0.3-0.3,0.6-0.9,0.7-1.7H596.9z"/>
	<path class="st1" d="M613.1,1113.6v20.5c0,1.6,0.1,2.7,0.3,3.2c0.2,0.5,0.6,0.9,1,1.2c0.5,0.3,1.3,0.4,2.5,0.4v1h-12.4v-1
		c1.2,0,2.1-0.1,2.5-0.4s0.8-0.6,1-1.2c0.2-0.6,0.4-1.6,0.4-3.2v-9.8c0-2.8-0.1-4.6-0.2-5.4c-0.1-0.6-0.3-1-0.6-1.2
		s-0.7-0.3-1.1-0.3c-0.5,0-1.1,0.1-1.9,0.4l-0.4-1l7.7-3.1H613.1z M610.8,1100.2c0.8,0,1.4,0.3,2,0.8c0.5,0.6,0.8,1.2,0.8,2
		c0,0.8-0.3,1.4-0.8,2c-0.5,0.6-1.2,0.8-2,0.8c-0.8,0-1.5-0.3-2-0.8c-0.6-0.6-0.8-1.2-0.8-2c0-0.8,0.3-1.5,0.8-2
		C609.3,1100.5,610,1100.2,610.8,1100.2z"/>
	<path class="st1" d="M627.6,1119c3-3.6,5.9-5.4,8.6-5.4c1.4,0,2.6,0.3,3.6,1c1,0.7,1.8,1.8,2.4,3.4c0.4,1.1,0.6,2.8,0.6,5.2v10.9
		c0,1.6,0.1,2.7,0.4,3.3c0.2,0.5,0.5,0.8,1,1.1c0.5,0.3,1.3,0.4,2.5,0.4v1H634v-1h0.6c1.2,0,2-0.2,2.5-0.5c0.5-0.4,0.8-0.9,1-1.6
		c0.1-0.3,0.1-1.2,0.1-2.6v-10.5c0-2.3-0.3-4-0.9-5c-0.6-1-1.6-1.6-3.1-1.6c-2.2,0-4.4,1.2-6.6,3.6v13.4c0,1.7,0.1,2.8,0.3,3.2
		c0.3,0.5,0.6,0.9,1.1,1.2c0.5,0.3,1.4,0.4,2.8,0.4v1h-12.6v-1h0.6c1.3,0,2.2-0.3,2.6-1c0.5-0.7,0.7-1.9,0.7-3.8v-9.4
		c0-3.1-0.1-4.9-0.2-5.6c-0.1-0.7-0.4-1.1-0.6-1.4c-0.3-0.2-0.7-0.4-1.2-0.4c-0.5,0-1.2,0.1-1.9,0.4l-0.4-1l7.7-3.1h1.2V1119z"/>
	<path class="st1" d="M663.1,1136.2c-2.6,2-4.2,3.2-4.9,3.5c-1,0.5-2.1,0.7-3.2,0.7c-1.8,0-3.2-0.6-4.3-1.8
		c-1.1-1.2-1.7-2.8-1.7-4.8c0-1.2,0.3-2.3,0.8-3.2c0.8-1.3,2.1-2.5,4-3.6c1.9-1.1,5-2.5,9.4-4.1v-1c0-2.5-0.4-4.3-1.2-5.2
		c-0.8-0.9-2-1.4-3.5-1.4c-1.2,0-2.1,0.3-2.8,0.9c-0.7,0.6-1.1,1.4-1.1,2.2l0.1,1.6c0,0.9-0.2,1.5-0.7,2c-0.4,0.5-1,0.7-1.7,0.7
		s-1.3-0.2-1.7-0.7c-0.4-0.5-0.7-1.1-0.7-2c0-1.6,0.8-3.1,2.5-4.4s3.9-2,6.9-2c2.3,0,4.1,0.4,5.6,1.1c1.1,0.6,1.9,1.5,2.4,2.7
		c0.3,0.8,0.5,2.4,0.5,4.9v8.7c0,2.4,0,3.9,0.1,4.5c0.1,0.6,0.2,0.9,0.5,1.1c0.2,0.2,0.5,0.3,0.7,0.3c0.3,0,0.6-0.1,0.8-0.2
		c0.4-0.2,1.2-0.9,2.3-2v1.6c-2.1,2.8-4.1,4.2-6,4.2c-0.9,0-1.6-0.3-2.2-0.9C663.4,1138.8,663.1,1137.7,663.1,1136.2z M663.1,1134.3
		v-9.7c-2.8,1.1-4.6,1.9-5.4,2.4c-1.5,0.8-2.5,1.7-3.1,2.6c-0.6,0.9-1,1.9-1,2.9c0,1.3,0.4,2.5,1.2,3.3s1.7,1.3,2.8,1.3
		C658.9,1137.1,660.8,1136.2,663.1,1134.3z"/>
	<path class="st1" d="M682.8,1100.2v33.8c0,1.6,0.1,2.7,0.3,3.2c0.2,0.5,0.6,0.9,1.1,1.2c0.5,0.3,1.4,0.4,2.7,0.4v1h-12.5v-1
		c1.2,0,2-0.1,2.4-0.4s0.8-0.6,1-1.2c0.2-0.6,0.3-1.6,0.3-3.2v-23.2c0-2.9-0.1-4.7-0.2-5.3c-0.1-0.7-0.3-1.1-0.6-1.3
		c-0.3-0.2-0.7-0.4-1.1-0.4c-0.5,0-1.1,0.2-1.8,0.4l-0.5-1l7.6-3.1H682.8z"/>
	<path class="st1" d="M702.3,1113.6c3.9,0,7,1.5,9.3,4.4c2,2.5,3,5.4,3,8.7c0,2.3-0.5,4.6-1.6,6.9c-1.1,2.3-2.6,4.1-4.5,5.3
		c-1.9,1.2-4.1,1.8-6.4,1.8c-3.8,0-6.9-1.5-9.2-4.6c-1.9-2.6-2.8-5.5-2.8-8.7c0-2.4,0.6-4.7,1.7-7c1.2-2.3,2.7-4,4.6-5.1
		C698.2,1114.1,700.2,1113.6,702.3,1113.6z M701.4,1115.4c-1,0-2,0.3-3,0.9c-1,0.6-1.8,1.6-2.4,3.1c-0.6,1.5-0.9,3.4-0.9,5.7
		c0,3.7,0.7,6.9,2.2,9.6c1.5,2.7,3.4,4,5.8,4c1.8,0,3.3-0.7,4.4-2.2c1.2-1.5,1.7-4,1.7-7.6c0-4.5-1-8.1-2.9-10.7
		C705.2,1116.2,703.5,1115.4,701.4,1115.4z"/>
	<path class="st1" d="M732.8,1136.2c-2.6,2-4.2,3.2-4.9,3.5c-1,0.5-2.1,0.7-3.2,0.7c-1.8,0-3.2-0.6-4.3-1.8
		c-1.1-1.2-1.7-2.8-1.7-4.8c0-1.2,0.3-2.3,0.8-3.2c0.8-1.3,2.1-2.5,4-3.6c1.9-1.1,5-2.5,9.4-4.1v-1c0-2.5-0.4-4.3-1.2-5.2
		c-0.8-0.9-2-1.4-3.5-1.4c-1.2,0-2.1,0.3-2.8,0.9c-0.7,0.6-1.1,1.4-1.1,2.2l0.1,1.6c0,0.9-0.2,1.5-0.7,2c-0.4,0.5-1,0.7-1.7,0.7
		s-1.3-0.2-1.7-0.7c-0.4-0.5-0.7-1.1-0.7-2c0-1.6,0.8-3.1,2.5-4.4s3.9-2,6.9-2c2.3,0,4.1,0.4,5.6,1.1c1.1,0.6,1.9,1.5,2.4,2.7
		c0.3,0.8,0.5,2.4,0.5,4.9v8.7c0,2.4,0,3.9,0.1,4.5c0.1,0.6,0.2,0.9,0.5,1.1c0.2,0.2,0.5,0.3,0.7,0.3c0.3,0,0.6-0.1,0.8-0.2
		c0.4-0.2,1.2-0.9,2.3-2v1.6c-2.1,2.8-4.1,4.2-6,4.2c-0.9,0-1.6-0.3-2.2-0.9C733.1,1138.8,732.8,1137.7,732.8,1136.2z M732.8,1134.3
		v-9.7c-2.8,1.1-4.6,1.9-5.4,2.4c-1.5,0.8-2.5,1.7-3.1,2.6c-0.6,0.9-1,1.9-1,2.9c0,1.3,0.4,2.5,1.2,3.3s1.7,1.3,2.8,1.3
		C728.6,1137.1,730.5,1136.2,732.8,1134.3z"/>
	<path class="st1" d="M743.2,1101.4v-1.2c2.8,1.4,5.2,3.1,7.1,4.9c2.7,2.7,4.7,5.9,6.1,9.5c1.4,3.7,2.2,7.5,2.2,11.4
		c0,5.8-1.4,11-4.2,15.8c-2.8,4.7-6.5,8.1-11.1,10.2v-1c2.3-1.3,4.2-3,5.6-5.2c1.5-2.2,2.6-5,3.3-8.3c0.7-3.4,1.1-6.9,1.1-10.6
		c0-3.9-0.3-7.6-0.9-10.8c-0.5-2.6-1-4.6-1.7-6.2c-0.7-1.5-1.6-3-2.8-4.5C746.6,1104,745.1,1102.7,743.2,1101.4z"/>
	<path class="st1" d="M787.1,1104.1v14.9h8.3c2.2,0,3.6-0.3,4.3-1c1-0.9,1.5-2.4,1.6-4.5h1v13.1h-1c-0.3-1.8-0.5-3-0.8-3.5
		c-0.3-0.7-0.9-1.2-1.6-1.6c-0.8-0.4-1.9-0.6-3.5-0.6h-8.3v12.5c0,1.7,0.1,2.7,0.2,3.1s0.4,0.6,0.8,0.8c0.4,0.2,1.1,0.3,2.1,0.3h6.4
		c2.1,0,3.7-0.1,4.6-0.4c1-0.3,1.9-0.9,2.8-1.7c1.2-1.2,2.3-2.9,3.5-5.2h1.1l-3.3,9.5h-29.1v-1h1.3c0.9,0,1.8-0.2,2.6-0.6
		c0.6-0.3,1-0.7,1.2-1.3c0.2-0.6,0.3-1.8,0.3-3.6v-24.6c0-2.4-0.2-3.9-0.7-4.4c-0.7-0.7-1.8-1.1-3.4-1.1h-1.3v-1h29.1l0.4,8.3h-1.1
		c-0.4-2-0.8-3.4-1.3-4.1c-0.5-0.7-1.2-1.3-2.1-1.7c-0.8-0.3-2.1-0.4-3.9-0.4H787.1z"/>
	<path class="st1" d="M820.6,1100.2v33.8c0,1.6,0.1,2.7,0.3,3.2c0.2,0.5,0.6,0.9,1.1,1.2c0.5,0.3,1.4,0.4,2.7,0.4v1h-12.5v-1
		c1.2,0,2-0.1,2.4-0.4c0.4-0.2,0.8-0.6,1-1.2c0.2-0.6,0.3-1.6,0.3-3.2v-23.2c0-2.9-0.1-4.7-0.2-5.3c-0.1-0.7-0.3-1.1-0.6-1.3
		c-0.3-0.2-0.7-0.4-1.1-0.4c-0.5,0-1.1,0.2-1.8,0.4l-0.5-1l7.6-3.1H820.6z"/>
	<path class="st1" d="M863.5,1139.8l-14.6-31.8v25.3c0,2.3,0.3,3.7,0.8,4.3c0.7,0.8,1.8,1.2,3.3,1.2h1.3v1H841v-1h1.3
		c1.6,0,2.7-0.5,3.4-1.5c0.4-0.6,0.6-1.9,0.6-4v-24.7c0-1.7-0.2-2.9-0.6-3.6c-0.3-0.5-0.7-1-1.4-1.3c-0.7-0.4-1.8-0.6-3.4-0.6v-1
		h10.7l13.7,29.6l13.5-29.6h10.7v1h-1.3c-1.6,0-2.8,0.5-3.4,1.5c-0.4,0.6-0.6,2-0.6,4.1v24.7c0,2.3,0.3,3.7,0.8,4.3
		c0.7,0.8,1.8,1.2,3.3,1.2h1.3v1h-16v-1h1.3c1.6,0,2.7-0.5,3.4-1.5c0.4-0.6,0.6-1.9,0.6-4V1108l-14.6,31.8H863.5z"/>
	<path class="st1" d="M907.1,1136.2c-2.6,2-4.2,3.2-4.9,3.5c-1,0.5-2.1,0.7-3.2,0.7c-1.8,0-3.2-0.6-4.3-1.8
		c-1.1-1.2-1.7-2.8-1.7-4.8c0-1.2,0.3-2.3,0.8-3.2c0.8-1.3,2.1-2.5,4-3.6c1.9-1.1,5-2.5,9.4-4.1v-1c0-2.5-0.4-4.3-1.2-5.2
		c-0.8-0.9-2-1.4-3.5-1.4c-1.2,0-2.1,0.3-2.8,0.9c-0.7,0.6-1.1,1.4-1.1,2.2l0.1,1.6c0,0.9-0.2,1.5-0.7,2c-0.4,0.5-1,0.7-1.7,0.7
		s-1.3-0.2-1.7-0.7c-0.4-0.5-0.7-1.1-0.7-2c0-1.6,0.8-3.1,2.5-4.4s3.9-2,6.9-2c2.3,0,4.1,0.4,5.6,1.1c1.1,0.6,1.9,1.5,2.4,2.7
		c0.3,0.8,0.5,2.4,0.5,4.9v8.7c0,2.4,0,3.9,0.1,4.5c0.1,0.6,0.2,0.9,0.5,1.1c0.2,0.2,0.5,0.3,0.7,0.3c0.3,0,0.6-0.1,0.8-0.2
		c0.4-0.2,1.2-0.9,2.3-2v1.6c-2.1,2.8-4.1,4.2-6,4.2c-0.9,0-1.6-0.3-2.2-0.9C907.4,1138.8,907.1,1137.7,907.1,1136.2z M907.1,1134.3
		v-9.7c-2.8,1.1-4.6,1.9-5.4,2.4c-1.5,0.8-2.5,1.7-3.1,2.6c-0.6,0.9-1,1.9-1,2.9c0,1.3,0.4,2.5,1.2,3.3s1.7,1.3,2.8,1.3
		C902.9,1137.1,904.8,1136.2,907.1,1134.3z"/>
	<path class="st1" d="M925.4,1119c3-3.6,5.9-5.4,8.6-5.4c1.4,0,2.6,0.3,3.6,1c1,0.7,1.8,1.8,2.4,3.4c0.4,1.1,0.6,2.8,0.6,5.2v10.9
		c0,1.6,0.1,2.7,0.4,3.3c0.2,0.5,0.5,0.8,1,1.1c0.5,0.3,1.3,0.4,2.5,0.4v1h-12.6v-1h0.6c1.2,0,2-0.2,2.5-0.5c0.5-0.4,0.8-0.9,1-1.6
		c0.1-0.3,0.1-1.2,0.1-2.6v-10.5c0-2.3-0.3-4-0.9-5c-0.6-1-1.6-1.6-3.1-1.6c-2.2,0-4.4,1.2-6.6,3.6v13.4c0,1.7,0.1,2.8,0.3,3.2
		c0.3,0.5,0.6,0.9,1.1,1.2c0.5,0.3,1.4,0.4,2.8,0.4v1h-12.6v-1h0.6c1.3,0,2.2-0.3,2.6-1c0.5-0.7,0.7-1.9,0.7-3.8v-9.4
		c0-3.1-0.1-4.9-0.2-5.6c-0.1-0.7-0.4-1.1-0.6-1.4c-0.3-0.2-0.7-0.4-1.2-0.4c-0.5,0-1.2,0.1-1.9,0.4l-0.4-1l7.7-3.1h1.2V1119z"/>
	<path class="st1" d="M953.3,1130.5c-1.6-0.8-2.8-1.8-3.6-3.2c-0.8-1.4-1.2-2.9-1.2-4.5c0-2.5,1-4.7,2.9-6.5
		c1.9-1.8,4.3-2.7,7.3-2.7c2.4,0,4.5,0.6,6.3,1.8h5.4c0.8,0,1.3,0,1.4,0.1c0.1,0,0.2,0.1,0.3,0.2c0.1,0.2,0.2,0.5,0.2,0.9
		c0,0.5,0,0.8-0.1,1c-0.1,0.1-0.2,0.2-0.3,0.2c-0.1,0.1-0.6,0.1-1.4,0.1H967c1,1.3,1.6,3,1.6,5.1c0,2.4-0.9,4.4-2.7,6.1
		c-1.8,1.7-4.3,2.5-7.3,2.5c-1.3,0-2.6-0.2-3.9-0.6c-0.8,0.7-1.4,1.3-1.6,1.9c-0.3,0.5-0.4,1-0.4,1.3c0,0.3,0.2,0.6,0.4,0.9
		c0.3,0.3,0.9,0.5,1.8,0.6c0.5,0.1,1.8,0.1,3.9,0.2c3.8,0.1,6.3,0.2,7.4,0.4c1.7,0.2,3.1,0.9,4.1,1.9c1,1,1.5,2.3,1.5,3.9
		c0,2.1-1,4.1-2.9,5.9c-2.9,2.7-6.7,4.1-11.3,4.1c-3.6,0-6.6-0.8-9.1-2.4c-1.4-0.9-2.1-1.9-2.1-2.9c0-0.4,0.1-0.9,0.3-1.3
		c0.3-0.7,1-1.6,1.9-2.8c0.1-0.2,1.1-1.2,2.8-3c-0.9-0.6-1.6-1.1-2-1.6c-0.4-0.5-0.6-1-0.6-1.6c0-0.6,0.3-1.4,0.8-2.3
		C950.2,1133.3,951.4,1132.1,953.3,1130.5z M953,1139.8c-0.9,0.9-1.5,1.8-2,2.6c-0.5,0.8-0.7,1.6-0.7,2.3c0,0.9,0.5,1.6,1.6,2.3
		c1.8,1.2,4.5,1.7,8.1,1.7c3.3,0,5.8-0.6,7.4-1.8s2.4-2.4,2.4-3.8c0-1-0.5-1.7-1.4-2.1c-1-0.4-2.9-0.6-5.7-0.7
		C958.5,1140.4,955.3,1140.1,953,1139.8z M958.2,1114.9c-1.4,0-2.5,0.5-3.5,1.6s-1.4,2.8-1.4,5c0,2.9,0.6,5.2,1.9,6.8
		c1,1.2,2.2,1.8,3.7,1.8c1.4,0,2.6-0.5,3.5-1.6c0.9-1.1,1.4-2.7,1.4-5c0-3-0.6-5.3-1.9-6.9C960.8,1115.5,959.6,1114.9,958.2,1114.9z
		"/>
	<path class="st1" d="M983.8,1100.2v33.8c0,1.6,0.1,2.7,0.3,3.2c0.2,0.5,0.6,0.9,1.1,1.2c0.5,0.3,1.4,0.4,2.7,0.4v1h-12.5v-1
		c1.2,0,2-0.1,2.4-0.4c0.4-0.2,0.8-0.6,1-1.2c0.2-0.6,0.3-1.6,0.3-3.2v-23.2c0-2.9-0.1-4.7-0.2-5.3c-0.1-0.7-0.3-1.1-0.6-1.3
		c-0.3-0.2-0.7-0.4-1.1-0.4c-0.5,0-1.1,0.2-1.8,0.4l-0.5-1l7.6-3.1H983.8z"/>
	<path class="st1" d="M999.6,1113.6v20.5c0,1.6,0.1,2.7,0.3,3.2c0.2,0.5,0.6,0.9,1,1.2c0.5,0.3,1.3,0.4,2.5,0.4v1h-12.4v-1
		c1.2,0,2.1-0.1,2.5-0.4s0.8-0.6,1-1.2c0.2-0.6,0.4-1.6,0.4-3.2v-9.8c0-2.8-0.1-4.6-0.2-5.4c-0.1-0.6-0.3-1-0.6-1.2
		s-0.7-0.3-1.1-0.3c-0.5,0-1.1,0.1-1.9,0.4l-0.4-1l7.7-3.1H999.6z M997.3,1100.2c0.8,0,1.4,0.3,2,0.8c0.5,0.6,0.8,1.2,0.8,2
		c0,0.8-0.3,1.4-0.8,2c-0.5,0.6-1.2,0.8-2,0.8c-0.8,0-1.5-0.3-2-0.8c-0.6-0.6-0.8-1.2-0.8-2c0-0.8,0.3-1.5,0.8-2
		C995.8,1100.5,996.5,1100.2,997.3,1100.2z"/>
	<path class="st1" d="M1014.1,1105.9v8.4h6v1.9h-6v16.5c0,1.7,0.2,2.8,0.7,3.4c0.5,0.6,1.1,0.9,1.8,0.9c0.6,0,1.2-0.2,1.8-0.6
		c0.6-0.4,1-1,1.3-1.7h1.1c-0.6,1.8-1.6,3.2-2.8,4.1c-1.2,0.9-2.4,1.4-3.7,1.4c-0.9,0-1.7-0.2-2.5-0.7c-0.8-0.5-1.4-1.1-1.8-2
		c-0.4-0.9-0.6-2.2-0.6-4.1v-17.2h-4v-0.9c1-0.4,2.1-1.1,3.1-2.1c1.1-1,2-2.1,2.9-3.5c0.4-0.7,1-2,1.8-3.9H1014.1z"/>
	<path class="st1" d="M1035,1113.6c3.9,0,7,1.5,9.3,4.4c2,2.5,3,5.4,3,8.7c0,2.3-0.5,4.6-1.6,6.9c-1.1,2.3-2.6,4.1-4.5,5.3
		c-1.9,1.2-4.1,1.8-6.4,1.8c-3.8,0-6.9-1.5-9.2-4.6c-1.9-2.6-2.8-5.5-2.8-8.7c0-2.4,0.6-4.7,1.7-7c1.2-2.3,2.7-4,4.6-5.1
		C1030.9,1114.1,1032.9,1113.6,1035,1113.6z M1034.1,1115.4c-1,0-2,0.3-3,0.9c-1,0.6-1.8,1.6-2.4,3.1c-0.6,1.5-0.9,3.4-0.9,5.7
		c0,3.7,0.7,6.9,2.2,9.6s3.4,4,5.8,4c1.8,0,3.3-0.7,4.4-2.2c1.2-1.5,1.7-4,1.7-7.6c0-4.5-1-8.1-2.9-10.7
		C1037.9,1116.2,1036.2,1115.4,1034.1,1115.4z"/>
	<path class="st1" d="M1052.4,1149.3v-1.2c1.9-0.6,3.4-1.6,4.4-2.9c1-1.3,1.6-2.7,1.6-4.2c0-0.3-0.1-0.6-0.2-0.9
		c-0.1-0.2-0.2-0.2-0.4-0.2c-0.2,0-0.7,0.2-1.3,0.6c-0.3,0.2-0.7,0.3-1,0.3c-0.9,0-1.6-0.3-2.2-0.8c-0.5-0.5-0.8-1.3-0.8-2.2
		c0-0.9,0.3-1.7,1-2.4c0.7-0.6,1.5-1,2.5-1c1.2,0,2.3,0.5,3.3,1.6c0.9,1.1,1.4,2.5,1.4,4.2c0,1.9-0.7,3.7-2,5.3
		C1057.3,1147.1,1055.2,1148.4,1052.4,1149.3z"/>
	<path class="st1" d="M144,1223.8v1h-16.2v-1h1.3c1.5,0,2.7-0.5,3.4-1.3c0.4-0.6,0.7-2,0.7-4.3v-24.4c0-1.9-0.1-3.2-0.3-3.8
		c-0.2-0.5-0.6-0.9-1.1-1.2c-0.8-0.5-1.7-0.7-2.6-0.7h-1.3v-1H144v1h-1.4c-1.5,0-2.6,0.5-3.4,1.4c-0.5,0.6-0.7,2-0.7,4.3v24.4
		c0,1.9,0.1,3.2,0.3,3.8c0.2,0.5,0.6,0.9,1.2,1.2c0.8,0.4,1.6,0.7,2.5,0.7H144z"/>
	<path class="st1" d="M154.6,1204c3-3.6,5.9-5.4,8.6-5.4c1.4,0,2.6,0.3,3.6,1c1,0.7,1.8,1.8,2.4,3.4c0.4,1.1,0.6,2.8,0.6,5.2v10.9
		c0,1.6,0.1,2.7,0.4,3.3c0.2,0.5,0.5,0.8,1,1.1c0.4,0.3,1.3,0.4,2.5,0.4v1h-12.6v-1h0.6c1.2,0,2-0.2,2.5-0.5c0.5-0.4,0.8-0.9,1-1.6
		c0.1-0.3,0.1-1.2,0.1-2.6v-10.5c0-2.3-0.3-4-0.9-5c-0.6-1-1.6-1.6-3.1-1.6c-2.2,0-4.4,1.2-6.6,3.6v13.4c0,1.7,0.1,2.8,0.3,3.2
		c0.3,0.5,0.6,0.9,1.1,1.2c0.4,0.3,1.4,0.4,2.8,0.4v1h-12.6v-1h0.6c1.3,0,2.2-0.3,2.6-1c0.5-0.7,0.7-1.9,0.7-3.8v-9.4
		c0-3.1-0.1-4.9-0.2-5.6c-0.1-0.7-0.4-1.1-0.6-1.4c-0.3-0.2-0.7-0.4-1.2-0.4c-0.5,0-1.2,0.1-1.9,0.4l-0.4-1l7.7-3.1h1.2V1204z"/>
	<path class="st1" d="M190.2,1221.2c-2.6,2-4.2,3.2-4.9,3.5c-1,0.5-2.1,0.7-3.2,0.7c-1.8,0-3.2-0.6-4.3-1.8
		c-1.1-1.2-1.7-2.8-1.7-4.8c0-1.2,0.3-2.3,0.8-3.2c0.8-1.3,2.1-2.5,4-3.6c1.9-1.1,5-2.5,9.4-4.1v-1c0-2.5-0.4-4.3-1.2-5.2
		c-0.8-0.9-2-1.4-3.5-1.4c-1.2,0-2.1,0.3-2.8,0.9c-0.7,0.6-1.1,1.4-1.1,2.2l0.1,1.6c0,0.9-0.2,1.5-0.7,2c-0.4,0.5-1,0.7-1.7,0.7
		c-0.7,0-1.3-0.2-1.7-0.7c-0.4-0.5-0.7-1.1-0.7-2c0-1.6,0.8-3.1,2.5-4.4c1.6-1.3,3.9-2,6.9-2c2.3,0,4.1,0.4,5.6,1.1
		c1.1,0.6,1.9,1.5,2.4,2.7c0.3,0.8,0.5,2.4,0.5,4.9v8.7c0,2.4,0,3.9,0.1,4.5c0.1,0.6,0.2,0.9,0.5,1.1c0.2,0.2,0.5,0.3,0.7,0.3
		c0.3,0,0.6-0.1,0.8-0.2c0.4-0.2,1.2-0.9,2.3-2v1.6c-2.1,2.8-4.1,4.2-6,4.2c-0.9,0-1.6-0.3-2.2-0.9
		C190.5,1223.8,190.2,1222.7,190.2,1221.2z M190.2,1219.4v-9.7c-2.8,1.1-4.6,1.9-5.4,2.4c-1.5,0.8-2.5,1.7-3.1,2.6
		c-0.6,0.9-1,1.9-1,2.9c0,1.3,0.4,2.5,1.2,3.3c0.8,0.9,1.7,1.3,2.8,1.3C186,1222.2,187.9,1221.2,190.2,1219.4z"/>
	<path class="st1" d="M209.8,1185.3v33.8c0,1.6,0.1,2.7,0.3,3.2c0.2,0.5,0.6,0.9,1.1,1.2c0.5,0.3,1.4,0.4,2.7,0.4v1h-12.5v-1
		c1.2,0,2-0.1,2.4-0.4s0.8-0.6,1-1.2s0.3-1.6,0.3-3.2v-23.2c0-2.9-0.1-4.7-0.2-5.3c-0.1-0.7-0.3-1.1-0.6-1.3
		c-0.3-0.2-0.7-0.4-1.1-0.4c-0.5,0-1.1,0.2-1.8,0.4l-0.5-1l7.6-3.1H209.8z"/>
	<path class="st1" d="M231.3,1221.2c-2.6,2-4.2,3.2-4.9,3.5c-1,0.5-2.1,0.7-3.2,0.7c-1.8,0-3.2-0.6-4.3-1.8
		c-1.1-1.2-1.7-2.8-1.7-4.8c0-1.2,0.3-2.3,0.8-3.2c0.8-1.3,2.1-2.5,4-3.6c1.9-1.1,5-2.5,9.4-4.1v-1c0-2.5-0.4-4.3-1.2-5.2
		c-0.8-0.9-2-1.4-3.5-1.4c-1.2,0-2.1,0.3-2.8,0.9c-0.7,0.6-1.1,1.4-1.1,2.2l0.1,1.6c0,0.9-0.2,1.5-0.7,2c-0.4,0.5-1,0.7-1.7,0.7
		c-0.7,0-1.3-0.2-1.7-0.7c-0.4-0.5-0.7-1.1-0.7-2c0-1.6,0.8-3.1,2.5-4.4c1.6-1.3,3.9-2,6.9-2c2.3,0,4.1,0.4,5.6,1.1
		c1.1,0.6,1.9,1.5,2.4,2.7c0.3,0.8,0.5,2.4,0.5,4.9v8.7c0,2.4,0,3.9,0.1,4.5c0.1,0.6,0.2,0.9,0.5,1.1c0.2,0.2,0.5,0.3,0.7,0.3
		c0.3,0,0.6-0.1,0.8-0.2c0.4-0.2,1.2-0.9,2.3-2v1.6c-2.1,2.8-4.1,4.2-6,4.2c-0.9,0-1.6-0.3-2.2-0.9
		C231.6,1223.8,231.4,1222.7,231.3,1221.2z M231.3,1219.4v-9.7c-2.8,1.1-4.6,1.9-5.4,2.4c-1.5,0.8-2.5,1.7-3.1,2.6
		c-0.6,0.9-1,1.9-1,2.9c0,1.3,0.4,2.5,1.2,3.3c0.8,0.9,1.7,1.3,2.8,1.3C227.2,1222.2,229,1221.2,231.3,1219.4z M234.1,1186.2
		l-8.2,9.6h-0.9l2.9-9.6H234.1z"/>
	<path class="st1" d="M249.8,1204c1.9-1.9,3-2.9,3.3-3.2c0.9-0.7,1.8-1.2,2.7-1.6c1-0.4,1.9-0.6,2.9-0.6c1.6,0,3,0.5,4.2,1.4
		c1.2,0.9,1.9,2.3,2.3,4c1.9-2.2,3.5-3.7,4.9-4.4c1.3-0.7,2.7-1,4.1-1c1.4,0,2.6,0.3,3.6,1c1,0.7,1.9,1.8,2.5,3.4
		c0.4,1.1,0.6,2.7,0.6,5.1v11c0,1.6,0.1,2.7,0.3,3.3c0.2,0.4,0.6,0.8,1.1,1.1c0.5,0.3,1.3,0.4,2.4,0.4v1H272v-1h0.6
		c1.1,0,1.9-0.2,2.6-0.6c0.4-0.3,0.7-0.8,0.9-1.5c0.1-0.3,0.1-1.2,0.1-2.7v-11c0-2.1-0.2-3.5-0.7-4.4c-0.7-1.2-1.9-1.8-3.5-1.8
		c-1,0-2,0.2-3,0.7c-1,0.5-2.2,1.4-3.6,2.8l-0.1,0.3l0.1,1.2v12.1c0,1.8,0.1,2.8,0.3,3.3c0.2,0.4,0.6,0.8,1.1,1.1
		c0.5,0.3,1.5,0.4,2.8,0.4v1h-12.9v-1c1.4,0,2.4-0.2,2.9-0.5c0.5-0.3,0.9-0.8,1.1-1.5c0.1-0.3,0.1-1.2,0.1-2.8v-11
		c0-2.1-0.3-3.6-0.9-4.5c-0.8-1.2-2-1.8-3.4-1.8c-1,0-2,0.3-3,0.8c-1.5,0.8-2.7,1.8-3.6,2.8v13.7c0,1.7,0.1,2.8,0.4,3.3
		c0.2,0.5,0.6,0.9,1,1.1c0.4,0.3,1.4,0.4,2.8,0.4v1h-12.6v-1c1.2,0,2-0.1,2.4-0.4c0.5-0.3,0.8-0.7,1.1-1.2c0.2-0.5,0.4-1.6,0.4-3.2
		v-9.7c0-2.8-0.1-4.6-0.3-5.4c-0.1-0.6-0.3-1-0.6-1.3c-0.3-0.2-0.7-0.3-1.1-0.3c-0.5,0-1.2,0.1-1.9,0.4l-0.4-1l7.7-3.1h1.2V1204z"/>
	<path class="st1" d="M293.6,1203.8c2.5-3.4,5.1-5.2,8-5.2c2.6,0,4.9,1.1,6.8,3.4c1.9,2.2,2.9,5.3,2.9,9.2c0,4.5-1.5,8.2-4.5,10.9
		c-2.6,2.4-5.5,3.6-8.7,3.6c-1.5,0-3-0.3-4.5-0.8c-1.5-0.5-3.1-1.4-4.7-2.4V1196c0-2.9-0.1-4.7-0.2-5.3s-0.4-1.1-0.7-1.4
		c-0.3-0.2-0.7-0.4-1.1-0.4c-0.5,0-1.2,0.2-2,0.4l-0.4-1l7.6-3.1h1.3V1203.8z M293.6,1205.5v15.3c0.9,0.9,1.9,1.7,2.9,2.1
		c1,0.5,2,0.7,3.1,0.7c1.7,0,3.3-0.9,4.7-2.8c1.5-1.9,2.2-4.6,2.2-8.1c0-3.3-0.7-5.8-2.2-7.5s-3.1-2.6-5-2.6c-1,0-2,0.3-2.9,0.8
		C295.7,1203.7,294.7,1204.4,293.6,1205.5z"/>
	<path class="st1" d="M322.6,1198.6v5.7c2.1-3.8,4.3-5.7,6.6-5.7c1,0,1.9,0.3,2.5,0.9s1,1.3,1,2.1c0,0.7-0.2,1.4-0.7,1.9
		c-0.5,0.5-1,0.7-1.7,0.7s-1.4-0.3-2.2-1c-0.8-0.6-1.4-1-1.8-1c-0.3,0-0.7,0.2-1.1,0.6c-0.8,0.8-1.7,2-2.6,3.7v12.3
		c0,1.4,0.2,2.5,0.6,3.2c0.2,0.5,0.7,0.9,1.3,1.3c0.6,0.3,1.5,0.5,2.6,0.5v1h-13v-1c1.3,0,2.2-0.2,2.9-0.6c0.5-0.3,0.8-0.8,1-1.4
		c0.1-0.3,0.1-1.2,0.1-2.7v-9.9c0-3-0.1-4.7-0.2-5.3c-0.1-0.6-0.3-1-0.7-1.2c-0.3-0.3-0.7-0.4-1.2-0.4c-0.6,0-1.2,0.1-1.9,0.4
		l-0.3-1l7.7-3.1H322.6z"/>
	<path class="st1" d="M342.9,1198.6v20.5c0,1.6,0.1,2.7,0.3,3.2c0.2,0.5,0.6,0.9,1,1.2c0.4,0.3,1.3,0.4,2.5,0.4v1h-12.4v-1
		c1.2,0,2.1-0.1,2.5-0.4c0.4-0.2,0.8-0.6,1-1.2c0.2-0.6,0.4-1.6,0.4-3.2v-9.8c0-2.8-0.1-4.6-0.2-5.4c-0.1-0.6-0.3-1-0.6-1.2
		c-0.3-0.2-0.7-0.3-1.1-0.3c-0.5,0-1.1,0.1-1.9,0.4l-0.4-1l7.7-3.1H342.9z M340.6,1185.3c0.8,0,1.4,0.3,2,0.8c0.5,0.6,0.8,1.2,0.8,2
		c0,0.8-0.3,1.4-0.8,2c-0.5,0.6-1.2,0.8-2,0.8c-0.8,0-1.5-0.3-2-0.8c-0.6-0.6-0.8-1.2-0.8-2c0-0.8,0.3-1.5,0.8-2
		C339.1,1185.5,339.8,1185.3,340.6,1185.3z"/>
	<path class="st1" d="M371.6,1215.2c-0.7,3.4-2,6-4,7.8c-2,1.8-4.2,2.7-6.6,2.7c-2.9,0-5.4-1.2-7.6-3.7c-2.2-2.4-3.2-5.7-3.2-9.9
		c0-4,1.2-7.3,3.6-9.8c2.4-2.5,5.3-3.8,8.6-3.8c2.5,0,4.6,0.7,6.2,2c1.6,1.3,2.4,2.7,2.4,4.1c0,0.7-0.2,1.3-0.7,1.7
		c-0.5,0.4-1.1,0.6-1.9,0.6c-1.1,0-1.9-0.3-2.5-1c-0.3-0.4-0.5-1.1-0.6-2.2c-0.1-1.1-0.5-1.9-1.1-2.5c-0.7-0.6-1.6-0.8-2.7-0.8
		c-1.9,0-3.4,0.7-4.5,2c-1.5,1.8-2.2,4.2-2.2,7.2c0,3,0.7,5.7,2.2,8.1c1.5,2.3,3.5,3.5,6.1,3.5c1.8,0,3.4-0.6,4.9-1.9
		c1-0.9,2-2.4,3-4.6L371.6,1215.2z"/>
	<path class="st1" d="M389.7,1221.2c-2.6,2-4.2,3.2-4.9,3.5c-1,0.5-2.1,0.7-3.2,0.7c-1.8,0-3.2-0.6-4.3-1.8
		c-1.1-1.2-1.7-2.8-1.7-4.8c0-1.2,0.3-2.3,0.8-3.2c0.8-1.3,2.1-2.5,4-3.6c1.9-1.1,5-2.5,9.4-4.1v-1c0-2.5-0.4-4.3-1.2-5.2
		c-0.8-0.9-2-1.4-3.5-1.4c-1.2,0-2.1,0.3-2.8,0.9c-0.7,0.6-1.1,1.4-1.1,2.2l0.1,1.6c0,0.9-0.2,1.5-0.7,2c-0.4,0.5-1,0.7-1.7,0.7
		c-0.7,0-1.3-0.2-1.7-0.7c-0.4-0.5-0.7-1.1-0.7-2c0-1.6,0.8-3.1,2.5-4.4c1.6-1.3,3.9-2,6.9-2c2.3,0,4.1,0.4,5.6,1.1
		c1.1,0.6,1.9,1.5,2.4,2.7c0.3,0.8,0.5,2.4,0.5,4.9v8.7c0,2.4,0,3.9,0.1,4.5c0.1,0.6,0.2,0.9,0.5,1.1c0.2,0.2,0.5,0.3,0.7,0.3
		c0.3,0,0.6-0.1,0.8-0.2c0.4-0.2,1.2-0.9,2.3-2v1.6c-2.1,2.8-4.1,4.2-6,4.2c-0.9,0-1.6-0.3-2.2-0.9
		C390,1223.8,389.8,1222.7,389.7,1221.2z M389.7,1219.4v-9.7c-2.8,1.1-4.6,1.9-5.4,2.4c-1.5,0.8-2.5,1.7-3.1,2.6
		c-0.6,0.9-1,1.9-1,2.9c0,1.3,0.4,2.5,1.2,3.3c0.8,0.9,1.7,1.3,2.8,1.3C385.6,1222.2,387.4,1221.2,389.7,1219.4z"/>
	<path class="st1" d="M401.9,1234.4v-1.2c1.9-0.6,3.4-1.6,4.4-2.9c1-1.3,1.6-2.7,1.6-4.2c0-0.3-0.1-0.6-0.2-0.9
		c-0.1-0.2-0.2-0.2-0.4-0.2c-0.2,0-0.7,0.2-1.3,0.6c-0.3,0.2-0.7,0.3-1,0.3c-0.9,0-1.6-0.3-2.2-0.8c-0.5-0.5-0.8-1.3-0.8-2.2
		c0-0.9,0.3-1.7,1-2.4c0.7-0.6,1.5-1,2.5-1c1.2,0,2.3,0.5,3.3,1.6c0.9,1.1,1.4,2.5,1.4,4.2c0,1.9-0.7,3.7-2,5.3
		C406.9,1232.1,404.8,1233.4,401.9,1234.4z"/>
	<path class="st1" d="M453.5,1217.6l-2.7,7.3h-22.3v-1c6.6-6,11.2-10.9,13.9-14.6c2.7-3.8,4-7.2,4-10.4c0-2.4-0.7-4.4-2.2-5.9
		s-3.2-2.3-5.2-2.3c-1.9,0-3.5,0.5-5,1.6c-1.5,1.1-2.6,2.7-3.3,4.8h-1c0.5-3.4,1.7-6.1,3.6-7.9s4.3-2.8,7.2-2.8c3.1,0,5.6,1,7.7,3
		c2.1,2,3.1,4.3,3.1,6.9c0,1.9-0.4,3.8-1.3,5.7c-1.4,3-3.6,6.2-6.7,9.6c-4.6,5.1-7.5,8.1-8.7,9.1h9.9c2,0,3.4-0.1,4.2-0.2
		c0.8-0.1,1.5-0.4,2.2-0.9c0.6-0.5,1.2-1.1,1.7-1.9H453.5z"/>
	<path class="st1" d="M458.8,1194.3c1.1-2.5,2.4-4.5,4.1-5.9c1.6-1.4,3.7-2.1,6.1-2.1c3,0,5.3,1,7,2.9c1.2,1.5,1.9,3,1.9,4.7
		c0,2.7-1.7,5.6-5.2,8.5c2.3,0.9,4.1,2.2,5.2,3.9c1.2,1.7,1.8,3.7,1.8,6c0,3.3-1,6.1-3.1,8.5c-2.7,3.1-6.6,4.7-11.8,4.7
		c-2.5,0-4.3-0.3-5.2-0.9c-0.9-0.6-1.4-1.3-1.4-2c0-0.5,0.2-1,0.7-1.4c0.4-0.4,1-0.6,1.6-0.6c0.5,0,0.9,0.1,1.4,0.2
		c0.3,0.1,1,0.4,2.2,1c1.1,0.6,1.9,0.9,2.3,1c0.7,0.2,1.4,0.3,2.2,0.3c1.9,0,3.5-0.7,4.9-2.2c1.4-1.5,2.1-3.2,2.1-5.2
		c0-1.5-0.3-2.9-1-4.3c-0.5-1-1-1.8-1.6-2.4c-0.8-0.7-1.9-1.4-3.3-2c-1.4-0.6-2.8-0.9-4.3-0.9h-0.9v-0.8c1.5-0.2,3-0.7,4.4-1.6
		s2.5-1.9,3.2-3.1c0.7-1.2,1-2.6,1-4c0-1.9-0.6-3.5-1.8-4.7c-1.2-1.2-2.7-1.8-4.5-1.8c-2.9,0-5.3,1.5-7.2,4.6L458.8,1194.3z"/>
	<path class="st1" d="M486.5,1206.2c0-4.3,0.6-8,1.9-11.1c1.3-3.1,3-5.4,5.2-7c1.7-1.2,3.4-1.8,5.2-1.8c2.9,0,5.5,1.5,7.8,4.4
		c2.9,3.6,4.3,8.6,4.3,14.9c0,4.4-0.6,8.1-1.9,11.2c-1.3,3.1-2.9,5.3-4.8,6.7c-2,1.4-3.9,2.1-5.7,2.1c-3.6,0-6.6-2.1-9-6.4
		C487.5,1215.6,486.5,1211.3,486.5,1206.2z M491.9,1206.9c0,5.2,0.6,9.4,1.9,12.7c1.1,2.8,2.6,4.2,4.7,4.2c1,0,2-0.5,3.1-1.3
		s1.9-2.4,2.5-4.5c0.9-3.2,1.3-7.7,1.3-13.5c0-4.3-0.4-7.9-1.3-10.8c-0.7-2.1-1.5-3.7-2.6-4.5c-0.8-0.6-1.7-0.9-2.7-0.9
		c-1.3,0-2.4,0.6-3.4,1.7c-1.3,1.5-2.2,4-2.7,7.3C492.1,1200.4,491.9,1203.7,491.9,1206.9z"/>
	<path class="st1" d="M538.5,1186.3v1c-2.4,0.2-4.4,0.7-6,1.5c-1.6,0.7-3.1,1.9-4.6,3.4c-1.5,1.5-2.8,3.2-3.8,5
		c-1,1.8-1.8,4-2.5,6.6c2.7-1.8,5.4-2.8,8.1-2.8c2.6,0,4.8,1,6.7,3.1c1.9,2.1,2.8,4.8,2.8,8c0,3.2-1,6-2.9,8.6
		c-2.3,3.2-5.4,4.7-9.1,4.7c-2.6,0-4.8-0.9-6.6-2.6c-3.5-3.3-5.3-7.6-5.3-12.9c0-3.4,0.7-6.6,2-9.7c1.3-3,3.3-5.7,5.8-8.1
		c2.5-2.4,4.9-3.9,7.2-4.8c2.3-0.8,4.4-1.2,6.4-1.2H538.5z M521.1,1205.8c-0.3,2.5-0.5,4.5-0.5,6.1c0,1.8,0.3,3.7,1,5.8
		c0.7,2.1,1.6,3.7,2.9,5c0.9,0.9,2.1,1.3,3.5,1.3c1.6,0,3.1-0.8,4.3-2.3c1.3-1.5,1.9-3.7,1.9-6.5c0-3.2-0.6-5.9-1.9-8.3
		c-1.3-2.3-3.1-3.5-5.4-3.5c-0.7,0-1.4,0.2-2.2,0.4C523.9,1204.2,522.7,1204.8,521.1,1205.8z"/>
	<path class="st1" d="M543.5,1206.2c0-4.3,0.6-8,1.9-11.1c1.3-3.1,3-5.4,5.2-7c1.7-1.2,3.4-1.8,5.2-1.8c2.9,0,5.5,1.5,7.8,4.4
		c2.9,3.6,4.3,8.6,4.3,14.9c0,4.4-0.6,8.1-1.9,11.2c-1.3,3.1-2.9,5.3-4.8,6.7c-2,1.4-3.9,2.1-5.7,2.1c-3.6,0-6.6-2.1-9-6.4
		C544.5,1215.6,543.5,1211.3,543.5,1206.2z M548.9,1206.9c0,5.2,0.6,9.4,1.9,12.7c1.1,2.8,2.6,4.2,4.7,4.2c1,0,2-0.5,3.1-1.3
		c1.1-0.9,1.9-2.4,2.5-4.5c0.9-3.2,1.3-7.7,1.3-13.5c0-4.3-0.4-7.9-1.3-10.8c-0.7-2.1-1.5-3.7-2.6-4.5c-0.8-0.6-1.7-0.9-2.7-0.9
		c-1.3,0-2.4,0.6-3.4,1.7c-1.3,1.5-2.2,4-2.7,7.3C549.2,1200.4,548.9,1203.7,548.9,1206.9z"/>
	<path class="st1" d="M616.9,1214.4l0.9,0.2l-3.3,10.2h-29.2v-1h1.4c1.6,0,2.7-0.5,3.4-1.6c0.4-0.6,0.6-2,0.6-4.1v-24.4
		c0-2.4-0.3-3.9-0.8-4.4c-0.7-0.8-1.8-1.2-3.2-1.2h-1.4v-1h17.1v1c-2,0-3.4,0.2-4.2,0.6c-0.8,0.4-1.4,0.9-1.6,1.5
		c-0.3,0.6-0.4,2-0.4,4.3v23.7c0,1.5,0.1,2.6,0.4,3.2c0.2,0.4,0.6,0.7,1,0.9c0.5,0.2,1.9,0.3,4.4,0.3h2.7c2.9,0,4.9-0.2,6.1-0.6
		c1.2-0.4,2.2-1.2,3.2-2.3C614.9,1218.5,615.9,1216.8,616.9,1214.4z"/>
	<path class="st1" d="M635.3,1221.2c-2.6,2-4.2,3.2-4.9,3.5c-1,0.5-2.1,0.7-3.2,0.7c-1.8,0-3.2-0.6-4.3-1.8
		c-1.1-1.2-1.7-2.8-1.7-4.8c0-1.2,0.3-2.3,0.8-3.2c0.8-1.3,2.1-2.5,4-3.6c1.9-1.1,5-2.5,9.4-4.1v-1c0-2.5-0.4-4.3-1.2-5.2
		c-0.8-0.9-2-1.4-3.5-1.4c-1.2,0-2.1,0.3-2.8,0.9c-0.7,0.6-1.1,1.4-1.1,2.2l0.1,1.6c0,0.9-0.2,1.5-0.7,2c-0.4,0.5-1,0.7-1.7,0.7
		s-1.3-0.2-1.7-0.7c-0.4-0.5-0.7-1.1-0.7-2c0-1.6,0.8-3.1,2.5-4.4s3.9-2,6.9-2c2.3,0,4.1,0.4,5.6,1.1c1.1,0.6,1.9,1.5,2.4,2.7
		c0.3,0.8,0.5,2.4,0.5,4.9v8.7c0,2.4,0,3.9,0.1,4.5c0.1,0.6,0.2,0.9,0.5,1.1c0.2,0.2,0.5,0.3,0.7,0.3c0.3,0,0.6-0.1,0.8-0.2
		c0.4-0.2,1.2-0.9,2.3-2v1.6c-2.1,2.8-4.1,4.2-6,4.2c-0.9,0-1.6-0.3-2.2-0.9C635.6,1223.8,635.3,1222.7,635.3,1221.2z M635.3,1219.4
		v-9.7c-2.8,1.1-4.6,1.9-5.4,2.4c-1.5,0.8-2.5,1.7-3.1,2.6c-0.6,0.9-1,1.9-1,2.9c0,1.3,0.4,2.5,1.2,3.3c0.8,0.9,1.7,1.3,2.8,1.3
		C631.1,1222.2,633,1221.2,635.3,1219.4z"/>
	<path class="st1" d="M670.3,1207.2v11c0,2.4,0.3,3.9,0.8,4.4c0.7,0.8,1.8,1.2,3.2,1.2h1.5v1h-16.2v-1h1.4c1.6,0,2.8-0.5,3.4-1.6
		c0.4-0.6,0.6-1.9,0.6-4.1v-24.4c0-2.4-0.3-3.9-0.8-4.4c-0.7-0.8-1.8-1.2-3.3-1.2h-1.4v-1h13.8c3.4,0,6.1,0.4,8,1.1
		c1.9,0.7,3.6,1.9,4.9,3.5c1.3,1.6,2,3.6,2,5.9c0,3.1-1,5.6-3,7.5c-2,1.9-4.9,2.9-8.6,2.9c-0.9,0-1.9-0.1-3-0.2
		C672.6,1207.6,671.5,1207.4,670.3,1207.2z M670.3,1205.6c1,0.2,1.9,0.3,2.6,0.4c0.8,0.1,1.4,0.1,1.9,0.1c1.9,0,3.6-0.7,5-2.2
		c1.4-1.5,2.1-3.4,2.1-5.8c0-1.6-0.3-3.1-1-4.5c-0.7-1.4-1.6-2.5-2.8-3.1c-1.2-0.7-2.6-1-4.2-1c-0.9,0-2.2,0.2-3.7,0.5V1205.6z"/>
	<path class="st1" d="M706.6,1221.2c-2.6,2-4.2,3.2-4.9,3.5c-1,0.5-2.1,0.7-3.2,0.7c-1.8,0-3.2-0.6-4.3-1.8
		c-1.1-1.2-1.7-2.8-1.7-4.8c0-1.2,0.3-2.3,0.8-3.2c0.8-1.3,2.1-2.5,4-3.6c1.9-1.1,5-2.5,9.4-4.1v-1c0-2.5-0.4-4.3-1.2-5.2
		c-0.8-0.9-2-1.4-3.5-1.4c-1.2,0-2.1,0.3-2.8,0.9c-0.7,0.6-1.1,1.4-1.1,2.2l0.1,1.6c0,0.9-0.2,1.5-0.7,2c-0.4,0.5-1,0.7-1.7,0.7
		s-1.3-0.2-1.7-0.7c-0.4-0.5-0.7-1.1-0.7-2c0-1.6,0.8-3.1,2.5-4.4s3.9-2,6.9-2c2.3,0,4.1,0.4,5.6,1.1c1.1,0.6,1.9,1.5,2.4,2.7
		c0.3,0.8,0.5,2.4,0.5,4.9v8.7c0,2.4,0,3.9,0.1,4.5c0.1,0.6,0.2,0.9,0.5,1.1c0.2,0.2,0.5,0.3,0.7,0.3c0.3,0,0.6-0.1,0.8-0.2
		c0.4-0.2,1.2-0.9,2.3-2v1.6c-2.1,2.8-4.1,4.2-6,4.2c-0.9,0-1.6-0.3-2.2-0.9C706.9,1223.8,706.6,1222.7,706.6,1221.2z M706.6,1219.4
		v-9.7c-2.8,1.1-4.6,1.9-5.4,2.4c-1.5,0.8-2.5,1.7-3.1,2.6c-0.6,0.9-1,1.9-1,2.9c0,1.3,0.4,2.5,1.2,3.3c0.8,0.9,1.7,1.3,2.8,1.3
		C702.4,1222.2,704.3,1221.2,706.6,1219.4z"/>
	<path class="st1" d="M739.6,1217.1l-0.3,7.8h-22.5v-1l16.9-22.6h-8.3c-1.8,0-3,0.1-3.5,0.3c-0.6,0.2-1,0.7-1.4,1.3
		c-0.5,0.9-0.8,2.1-0.9,3.5h-1.1l0.2-7.1h21.4v1L723,1223h9.3c1.9,0,3.3-0.2,4-0.5c0.7-0.3,1.3-0.9,1.7-1.7c0.3-0.6,0.6-1.8,0.8-3.7
		H739.6z"/>
	<path class="st1" d="M744.1,1234.4v-1.2c1.9-0.6,3.4-1.6,4.4-2.9c1-1.3,1.6-2.7,1.6-4.2c0-0.3-0.1-0.6-0.2-0.9
		c-0.1-0.2-0.2-0.2-0.4-0.2c-0.2,0-0.7,0.2-1.3,0.6c-0.3,0.2-0.7,0.3-1,0.3c-0.9,0-1.6-0.3-2.2-0.8c-0.5-0.5-0.8-1.3-0.8-2.2
		c0-0.9,0.3-1.7,1-2.4c0.7-0.6,1.5-1,2.5-1c1.2,0,2.3,0.5,3.3,1.6c0.9,1.1,1.4,2.5,1.4,4.2c0,1.9-0.7,3.7-2,5.3
		C749.1,1232.1,747,1233.4,744.1,1234.4z"/>
	<path class="st1" d="M795.9,1205.6c2.6,0.6,4.6,1.4,5.8,2.7c1.8,1.7,2.7,3.8,2.7,6.3c0,1.9-0.6,3.7-1.8,5.4c-1.2,1.7-2.8,3-4.9,3.8
		c-2.1,0.8-5.2,1.2-9.5,1.2h-17.9v-1h1.4c1.6,0,2.7-0.5,3.4-1.5c0.4-0.6,0.6-2,0.6-4.2v-24.4c0-2.4-0.3-3.8-0.8-4.4
		c-0.7-0.8-1.8-1.2-3.3-1.2h-1.4v-1h16.3c3,0,5.5,0.2,7.3,0.7c2.8,0.7,4.9,1.9,6.4,3.5c1.5,1.7,2.2,3.7,2.2,5.9
		c0,1.9-0.6,3.6-1.7,5.1C799.8,1203.8,798.1,1204.9,795.9,1205.6z M781.3,1204.1c0.7,0.1,1.4,0.2,2.3,0.3c0.9,0.1,1.9,0.1,2.9,0.1
		c2.7,0,4.7-0.3,6.1-0.9c1.4-0.6,2.4-1.5,3.1-2.7c0.7-1.2,1.1-2.5,1.1-4c0-2.2-0.9-4.1-2.7-5.6c-1.8-1.6-4.4-2.4-7.9-2.4
		c-1.9,0-3.5,0.2-5,0.6V1204.1z M781.3,1222.1c2.1,0.5,4.3,0.8,6.4,0.8c3.4,0,5.9-0.8,7.7-2.3c1.8-1.5,2.6-3.4,2.6-5.6
		c0-1.5-0.4-2.9-1.2-4.2c-0.8-1.3-2.1-2.4-3.9-3.2c-1.8-0.8-4-1.2-6.7-1.2c-1.2,0-2.1,0-3,0.1c-0.8,0-1.5,0.1-2,0.2V1222.1z"/>
	<path class="st1" d="M814.7,1219.5c0.9,0,1.6,0.3,2.2,0.9c0.6,0.6,0.9,1.3,0.9,2.2c0,0.9-0.3,1.6-0.9,2.2c-0.6,0.6-1.3,0.9-2.2,0.9
		c-0.9,0-1.6-0.3-2.2-0.9c-0.6-0.6-0.9-1.3-0.9-2.2c0-0.9,0.3-1.6,0.9-2.2C813.1,1219.8,813.9,1219.5,814.7,1219.5z"/>
	<path class="st1" d="M856.2,1186.2l0.9,12.9h-0.9c-1.2-3.9-2.8-6.6-4.9-8.3s-4.7-2.5-7.7-2.5c-2.5,0-4.8,0.6-6.8,1.9
		c-2,1.3-3.6,3.3-4.8,6.1c-1.2,2.8-1.7,6.2-1.7,10.4c0,3.4,0.5,6.4,1.6,8.9s2.7,4.4,4.9,5.8c2.2,1.3,4.7,2,7.5,2
		c2.5,0,4.6-0.5,6.5-1.6c1.9-1,3.9-3.1,6.2-6.2l0.8,0.6c-1.9,3.4-4.1,5.8-6.6,7.4c-2.5,1.6-5.5,2.3-9,2.3c-6.3,0-11.1-2.3-14.5-7
		c-2.6-3.5-3.8-7.5-3.8-12.2c0-3.8,0.8-7.2,2.5-10.4c1.7-3.2,4-5.6,7-7.4c3-1.7,6.2-2.6,9.7-2.6c2.7,0,5.4,0.7,8.1,2
		c0.8,0.4,1.3,0.6,1.7,0.6c0.5,0,0.9-0.2,1.3-0.5c0.5-0.5,0.8-1.2,1-2.1H856.2z"/>
	<path class="st1" d="M867.1,1219.5c0.9,0,1.6,0.3,2.2,0.9c0.6,0.6,0.9,1.3,0.9,2.2c0,0.9-0.3,1.6-0.9,2.2c-0.6,0.6-1.3,0.9-2.2,0.9
		c-0.9,0-1.6-0.3-2.2-0.9c-0.6-0.6-0.9-1.3-0.9-2.2c0-0.9,0.3-1.6,0.9-2.2C865.5,1219.8,866.2,1219.5,867.1,1219.5z"/>
	<path class="st1" d="M900.3,1186.2v13.1h-1c-0.3-2.5-0.9-4.5-1.8-6c-0.9-1.5-2.1-2.7-3.7-3.5c-1.6-0.9-3.3-1.3-5-1.3
		c-1.9,0-3.5,0.6-4.8,1.8c-1.3,1.2-1.9,2.5-1.9,4c0,1.2,0.4,2.2,1.2,3.1c1.2,1.4,3.9,3.3,8.2,5.6c3.5,1.9,5.9,3.3,7.2,4.4
		c1.3,1,2.3,2.2,3,3.6c0.7,1.4,1,2.8,1,4.3c0,2.9-1.1,5.3-3.3,7.4c-2.2,2.1-5.1,3.1-8.5,3.1c-1.1,0-2.1-0.1-3.1-0.2
		c-0.6-0.1-1.8-0.4-3.6-1c-1.8-0.6-3-0.9-3.4-0.9c-0.5,0-0.8,0.1-1.1,0.4c-0.3,0.3-0.5,0.9-0.6,1.7h-1v-12.9h1
		c0.5,2.7,1.1,4.7,2,6.1c0.8,1.3,2.1,2.5,3.8,3.4c1.7,0.9,3.5,1.3,5.5,1.3c2.3,0,4.1-0.6,5.5-1.8c1.3-1.2,2-2.7,2-4.4
		c0-0.9-0.3-1.9-0.8-2.8c-0.5-0.9-1.3-1.8-2.4-2.6c-0.7-0.6-2.7-1.7-5.9-3.5c-3.2-1.8-5.5-3.3-6.9-4.3c-1.4-1.1-2.4-2.3-3.1-3.6
		c-0.7-1.3-1.1-2.7-1.1-4.3c0-2.7,1-5.1,3.1-7s4.7-2.9,8-2.9c2,0,4.1,0.5,6.4,1.5c1,0.5,1.8,0.7,2.2,0.7c0.5,0,0.8-0.1,1.2-0.4
		c0.3-0.3,0.6-0.9,0.7-1.7H900.3z"/>
	<path class="st1" d="M913,1219.5c0.9,0,1.6,0.3,2.2,0.9c0.6,0.6,0.9,1.3,0.9,2.2c0,0.9-0.3,1.6-0.9,2.2c-0.6,0.6-1.3,0.9-2.2,0.9
		c-0.9,0-1.6-0.3-2.2-0.9c-0.6-0.6-0.9-1.3-0.9-2.2c0-0.9,0.3-1.6,0.9-2.2C911.5,1219.8,912.2,1219.5,913,1219.5z"/>
	<path class="st1" d="M923.3,1234.4v-1.2c1.9-0.6,3.4-1.6,4.4-2.9c1-1.3,1.6-2.7,1.6-4.2c0-0.3-0.1-0.6-0.2-0.9
		c-0.1-0.2-0.2-0.2-0.4-0.2c-0.2,0-0.7,0.2-1.3,0.6c-0.3,0.2-0.7,0.3-1,0.3c-0.9,0-1.6-0.3-2.2-0.8c-0.5-0.5-0.8-1.3-0.8-2.2
		c0-0.9,0.3-1.7,1-2.4c0.7-0.6,1.5-1,2.5-1c1.2,0,2.3,0.5,3.3,1.6c0.9,1.1,1.4,2.5,1.4,4.2c0,1.9-0.7,3.7-2,5.3
		C928.2,1232.1,926.1,1233.4,923.3,1234.4z"/>
	<path class="st1" d="M972,1224.9l-14.6-31.8v25.3c0,2.3,0.3,3.7,0.8,4.3c0.7,0.8,1.8,1.2,3.3,1.2h1.3v1h-13.1v-1h1.3
		c1.6,0,2.7-0.5,3.4-1.5c0.4-0.6,0.6-1.9,0.6-4v-24.7c0-1.7-0.2-2.9-0.6-3.6c-0.3-0.5-0.7-1-1.4-1.3c-0.7-0.4-1.8-0.6-3.4-0.6v-1
		h10.7l13.7,29.6l13.5-29.6h10.7v1h-1.3c-1.6,0-2.8,0.5-3.4,1.5c-0.4,0.6-0.6,2-0.6,4.1v24.7c0,2.3,0.3,3.7,0.8,4.3
		c0.7,0.8,1.8,1.2,3.3,1.2h1.3v1h-16v-1h1.3c1.6,0,2.7-0.5,3.4-1.5c0.4-0.6,0.6-1.9,0.6-4v-25.3l-14.6,31.8H972z"/>
	<path class="st1" d="M1005.5,1209c0,3.8,0.9,6.8,2.8,8.9c1.9,2.1,4,3.2,6.5,3.2c1.7,0,3.1-0.5,4.4-1.4c1.2-0.9,2.3-2.5,3.1-4.7
		l0.9,0.6c-0.4,2.5-1.5,4.9-3.4,7c-1.9,2.1-4.2,3.1-7.1,3.1c-3.1,0-5.7-1.2-7.9-3.6c-2.2-2.4-3.3-5.6-3.3-9.6
		c0-4.4,1.1-7.8,3.4-10.2c2.2-2.4,5.1-3.7,8.4-3.7c2.9,0,5.2,0.9,7,2.8c1.8,1.9,2.8,4.4,2.8,7.6H1005.5z M1005.5,1207.4h11.8
		c-0.1-1.6-0.3-2.8-0.6-3.5c-0.5-1-1.2-1.9-2.1-2.5c-0.9-0.6-1.9-0.9-2.9-0.9c-1.5,0-2.9,0.6-4.2,1.8
		C1006.4,1203.5,1005.7,1205.2,1005.5,1207.4z M1018.8,1186.2l-8.2,9.6h-0.9l2.9-9.6H1018.8z"/>
	<path class="st1" d="M1025.5,1199.4h12v1c-0.8,0-1.3,0.1-1.6,0.4c-0.3,0.3-0.5,0.6-0.5,1c0,0.5,0.3,1.2,1,2.1
		c0.2,0.3,0.5,0.8,0.9,1.4l1.8,2.9l2.1-2.9c1.3-1.8,2-3,2-3.5c0-0.4-0.2-0.7-0.5-1c-0.3-0.3-0.8-0.4-1.5-0.4v-1h8.6v1
		c-0.9,0.1-1.7,0.3-2.4,0.8c-0.9,0.6-2.2,2-3.7,4.1l-3.5,4.7l6.4,9.1c1.5,2.2,2.7,3.6,3.3,4c0.7,0.5,1.5,0.7,2.6,0.8v1h-12v-1
		c0.9,0,1.5-0.2,2-0.6c0.3-0.3,0.5-0.6,0.5-1c0-0.4-0.6-1.5-1.8-3.2l-3.7-5.5l-4.1,5.5c-1.2,1.7-1.9,2.7-1.9,3
		c0,0.4,0.2,0.8,0.6,1.2c0.4,0.4,1,0.6,1.9,0.6v1h-8.3v-1c0.7-0.1,1.3-0.3,1.8-0.7c0.7-0.5,1.9-1.9,3.6-4.1l5.4-7.1l-4.8-7
		c-1.4-2-2.5-3.3-3.2-3.8c-0.8-0.5-1.7-0.8-2.8-0.8V1199.4z"/>
	<path class="st1" d="M1063.9,1198.6v20.5c0,1.6,0.1,2.7,0.3,3.2c0.2,0.5,0.6,0.9,1,1.2c0.5,0.3,1.3,0.4,2.5,0.4v1h-12.4v-1
		c1.2,0,2.1-0.1,2.5-0.4s0.8-0.6,1-1.2c0.2-0.6,0.4-1.6,0.4-3.2v-9.8c0-2.8-0.1-4.6-0.2-5.4c-0.1-0.6-0.3-1-0.6-1.2
		c-0.3-0.2-0.7-0.3-1.1-0.3c-0.5,0-1.1,0.1-1.9,0.4l-0.4-1l7.7-3.1H1063.9z M1061.5,1185.3c0.8,0,1.4,0.3,2,0.8
		c0.5,0.6,0.8,1.2,0.8,2c0,0.8-0.3,1.4-0.8,2c-0.5,0.6-1.2,0.8-2,0.8s-1.5-0.3-2-0.8c-0.6-0.6-0.8-1.2-0.8-2c0-0.8,0.3-1.5,0.8-2
		C1060.1,1185.5,1060.7,1185.3,1061.5,1185.3z"/>
	<path class="st1" d="M1092.6,1215.2c-0.7,3.4-2,6-4,7.8c-2,1.8-4.2,2.7-6.6,2.7c-2.9,0-5.4-1.2-7.6-3.7c-2.2-2.4-3.2-5.7-3.2-9.9
		c0-4,1.2-7.3,3.6-9.8c2.4-2.5,5.3-3.8,8.6-3.8c2.5,0,4.6,0.7,6.2,2c1.6,1.3,2.4,2.7,2.4,4.1c0,0.7-0.2,1.3-0.7,1.7
		c-0.5,0.4-1.1,0.6-1.9,0.6c-1.1,0-1.9-0.3-2.5-1c-0.3-0.4-0.5-1.1-0.6-2.2c-0.1-1.1-0.5-1.9-1.1-2.5c-0.7-0.6-1.6-0.8-2.7-0.8
		c-1.9,0-3.4,0.7-4.5,2c-1.5,1.8-2.3,4.2-2.3,7.2c0,3,0.7,5.7,2.2,8.1c1.5,2.3,3.5,3.5,6.1,3.5c1.8,0,3.4-0.6,4.9-1.9
		c1-0.9,2-2.4,3-4.6L1092.6,1215.2z"/>
	<path class="st1" d="M1108.7,1198.6c3.9,0,7,1.5,9.3,4.4c2,2.5,3,5.4,3,8.7c0,2.3-0.5,4.6-1.6,6.9c-1.1,2.3-2.6,4.1-4.5,5.3
		c-1.9,1.2-4.1,1.8-6.4,1.8c-3.8,0-6.9-1.5-9.2-4.6c-1.9-2.6-2.8-5.5-2.8-8.7c0-2.4,0.6-4.7,1.7-7c1.2-2.3,2.7-4,4.6-5.1
		C1104.6,1199.2,1106.6,1198.6,1108.7,1198.6z M1107.8,1200.4c-1,0-2,0.3-3,0.9c-1,0.6-1.8,1.6-2.4,3.1c-0.6,1.5-0.9,3.4-0.9,5.7
		c0,3.7,0.7,6.9,2.2,9.6c1.5,2.7,3.4,4,5.8,4c1.8,0,3.3-0.7,4.4-2.2c1.2-1.5,1.7-4,1.7-7.6c0-4.5-1-8.1-2.9-10.7
		C1111.6,1201.3,1109.9,1200.4,1107.8,1200.4z"/>
</g>
<g>
	<path class="st1" d="M351.7,872.2l6.2,53.8l38.8-53.8H413v1.8c-3.6,0.2-5.6,0.5-6.2,0.7c-1.1,0.4-2.1,1.3-3,2.6
		c-0.9,1.3-1.9,3.7-2.9,7.4L388.4,927c-0.7,2.5-1.1,4.4-1.1,5.8c0,1.3,0.4,2.3,1.3,2.9c1.3,0.9,3.2,1.4,5.9,1.4h1.2l-0.4,1.8h-28.2
		l0.5-1.8h1.3c2.5,0,4.4-0.3,5.7-1c1-0.5,1.9-1.5,2.8-3c0.8-1.5,1.9-4.7,3.4-9.7l11.1-38.8l-39,54.4h-2l-6.3-54.4L332.8,926
		c-1,3.6-1.5,5.9-1.5,7.1c0,1.2,0.4,2.2,1.3,2.8c0.9,0.7,3,1.1,6.5,1.3l-0.6,1.8h-22l0.6-1.8h1.3c3.2,0,5.6-0.8,7-2.4
		c1.1-1.2,2.2-3.8,3.3-7.7l14.5-49.8c-1.1-1.1-2.1-1.9-3.1-2.3c-1-0.4-2.8-0.7-5.5-0.9l0.5-1.8H351.7z"/>
	<path class="st1" d="M451.2,894.4l-9.6,33.4l-1.1,4.5c-0.1,0.4-0.1,0.8-0.1,1c0,0.5,0.2,1,0.5,1.4c0.2,0.3,0.6,0.4,1,0.4
		c0.4,0,1-0.3,1.7-0.8c1.3-0.9,3-2.9,5.1-5.9l1.7,1.2c-2.2,3.4-4.6,6-7,7.8c-2.4,1.8-4.6,2.7-6.7,2.7c-1.4,0-2.4-0.3-3.2-1
		c-0.7-0.7-1.1-1.7-1.1-3.1c0-1.6,0.4-3.8,1.1-6.4l1-3.7c-4.3,5.6-8.3,9.6-11.9,11.8c-2.6,1.6-5.2,2.4-7.7,2.4c-2.4,0-4.5-1-6.2-3
		c-1.7-2-2.6-4.7-2.6-8.2c0-5.2,1.6-10.7,4.7-16.6c3.1-5.8,7.1-10.5,12-13.9c3.8-2.8,7.3-4.2,10.7-4.2c2,0,3.7,0.5,5.1,1.6
		c1.3,1.1,2.3,2.8,3,5.3l1.8-5.6L451.2,894.4z M433.6,897c-2.1,0-4.3,1-6.7,3c-3.4,2.8-6.4,6.9-9,12.4c-2.6,5.5-3.9,10.5-3.9,14.9
		c0,2.2,0.6,4,1.7,5.3c1.1,1.3,2.4,2,3.9,2c3.6,0,7.4-2.7,11.6-8c5.6-7,8.5-14.2,8.5-21.6c0-2.8-0.5-4.8-1.6-6.1
		C437,897.6,435.5,897,433.6,897z"/>
	<path class="st1" d="M459.5,897.2l17-2.8l-7.1,24c5.8-9.8,11-16.7,15.7-20.6c2.7-2.2,4.8-3.4,6.5-3.4c1.1,0,2,0.3,2.6,1
		c0.6,0.7,0.9,1.6,0.9,2.8c0,2.2-0.6,4.2-1.7,6.2c-0.8,1.5-1.9,2.2-3.4,2.2c-0.7,0-1.4-0.2-1.9-0.7c-0.6-0.5-0.9-1.2-1-2.3
		c0-0.6-0.2-1-0.4-1.2c-0.3-0.2-0.6-0.4-0.9-0.4c-0.6,0-1.1,0.1-1.6,0.4c-0.9,0.4-2.2,1.7-3.9,3.9c-2.7,3.2-5.7,7.4-8.9,12.5
		c-1.3,2.2-2.5,4.6-3.6,7.3c-1.3,3.8-2.1,6-2.3,6.8l-1.6,6.2h-7.5l9.1-30.6c1-3.6,1.5-6.1,1.5-7.6c0-0.6-0.2-1.1-0.7-1.5
		c-0.7-0.5-1.5-0.8-2.6-0.8c-0.7,0-2,0.1-3.8,0.4L459.5,897.2z"/>
	<path class="st1" d="M505.6,920.5c-0.2,1.6-0.3,3-0.3,4c0,2.9,1,5.4,3.1,7.5c2.1,2.1,4.6,3.1,7.6,3.1c2.4,0,4.6-0.5,6.8-1.5
		c2.2-1,5.4-3.1,9.7-6.4l1,1.4c-7.8,7.7-15.2,11.6-22.3,11.6c-4.8,0-8.4-1.5-10.8-4.5c-2.4-3-3.6-6.3-3.6-10c0-4.9,1.5-9.9,4.5-15
		c3-5.1,6.8-9.1,11.4-12c4.6-2.9,9.3-4.3,14.1-4.3c3.5,0,6,0.7,7.7,2.1c1.7,1.4,2.5,3.1,2.5,5c0,2.7-1.1,5.3-3.2,7.8
		c-2.9,3.3-7.1,5.9-12.6,7.9C517.5,918.7,512.3,919.7,505.6,920.5z M505.9,918c4.9-0.6,8.8-1.5,11.9-2.9c4-1.8,7.1-4,9.1-6.5
		c2-2.5,3-4.9,3-7.2c0-1.3-0.4-2.4-1.3-3.3c-0.9-0.9-2.1-1.3-3.7-1.3c-3.3,0-6.9,1.8-10.7,5.3C510.5,905.8,507.7,911.1,505.9,918z"
		/>
	<path class="st1" d="M585.8,894.4l-9.6,33.4l-1.1,4.5c-0.1,0.4-0.1,0.8-0.1,1c0,0.5,0.2,1,0.5,1.4c0.2,0.3,0.6,0.4,1,0.4
		c0.4,0,1-0.3,1.7-0.8c1.3-0.9,3-2.9,5.1-5.9l1.7,1.2c-2.2,3.4-4.6,6-7,7.8c-2.4,1.8-4.6,2.7-6.7,2.7c-1.4,0-2.4-0.3-3.2-1
		c-0.7-0.7-1.1-1.7-1.1-3.1c0-1.6,0.4-3.8,1.1-6.4l1-3.7c-4.3,5.6-8.3,9.6-11.9,11.8c-2.6,1.6-5.2,2.4-7.7,2.4c-2.4,0-4.5-1-6.2-3
		c-1.7-2-2.6-4.7-2.6-8.2c0-5.2,1.6-10.7,4.7-16.6c3.1-5.8,7.1-10.5,12-13.9c3.8-2.8,7.3-4.2,10.7-4.2c2,0,3.7,0.5,5.1,1.6
		c1.3,1.1,2.3,2.8,3,5.3l1.8-5.6L585.8,894.4z M568.2,897c-2.1,0-4.3,1-6.7,3c-3.4,2.8-6.4,6.9-9,12.4c-2.6,5.5-3.9,10.5-3.9,14.9
		c0,2.2,0.6,4,1.7,5.3c1.1,1.3,2.4,2,3.9,2c3.6,0,7.4-2.7,11.6-8c5.6-7,8.5-14.2,8.5-21.6c0-2.8-0.5-4.8-1.6-6.1
		C571.6,897.6,570.1,897,568.2,897z"/>
	<path class="st1" d="M660.4,939h-49.5l0.7-1.8c2.7,0,4.4-0.2,5.3-0.6c1.4-0.6,2.4-1.4,3.1-2.3c1-1.5,2.1-4.2,3.2-8.2l11.8-40.7
		c1-3.3,1.5-5.8,1.5-7.4c0-1.2-0.4-2.2-1.3-2.9c-0.9-0.7-2.6-1-5.1-1c-0.5,0-1,0-1.3-0.1l0.6-1.8h27.2L656,874
		c-3.1,0-5.2,0.3-6.5,0.9c-1.3,0.6-2.4,1.6-3.2,2.9c-0.6,0.9-1.5,3.7-2.9,8.3l-11.6,40c-0.9,3-1.3,5.1-1.3,6.3
		c0,0.8,0.4,1.6,1.3,2.3c0.5,0.5,1.8,0.7,3.8,0.7h6.4c4.7,0,8.4-0.6,11.2-1.8c2-0.9,3.9-2.2,5.6-4c0.9-1,2.5-3.4,4.8-7.3l1.3-2.2
		h1.8L660.4,939z"/>
	<path class="st1" d="M717.6,894.4l-9.6,33.4l-1.1,4.5c-0.1,0.4-0.1,0.8-0.1,1c0,0.5,0.2,1,0.5,1.4c0.2,0.3,0.6,0.4,1,0.4
		c0.4,0,1-0.3,1.7-0.8c1.3-0.9,3-2.9,5.1-5.9l1.7,1.2c-2.2,3.4-4.6,6-7,7.8c-2.4,1.8-4.6,2.7-6.7,2.7c-1.4,0-2.4-0.3-3.2-1
		c-0.7-0.7-1.1-1.7-1.1-3.1c0-1.6,0.4-3.8,1.1-6.4l1-3.7c-4.3,5.6-8.3,9.6-11.9,11.8c-2.6,1.6-5.2,2.4-7.7,2.4c-2.4,0-4.5-1-6.2-3
		c-1.7-2-2.6-4.7-2.6-8.2c0-5.2,1.6-10.7,4.7-16.6c3.1-5.8,7.1-10.5,12-13.9c3.8-2.8,7.3-4.2,10.7-4.2c2,0,3.7,0.5,5.1,1.6
		c1.3,1.1,2.3,2.8,3,5.3l1.8-5.6L717.6,894.4z M700.1,897c-2.1,0-4.3,1-6.7,3c-3.4,2.8-6.4,6.9-9,12.4c-2.6,5.5-3.9,10.5-3.9,14.9
		c0,2.2,0.6,4,1.7,5.3c1.1,1.3,2.4,2,3.9,2c3.6,0,7.4-2.7,11.6-8c5.6-7,8.5-14.2,8.5-21.6c0-2.8-0.5-4.8-1.6-6.1
		C703.4,897.6,701.9,897,700.1,897z"/>
	<path class="st1" d="M761.7,872.2H788c6.9,0,12.1,1.5,15.5,4.5c3.4,3,5.1,6.6,5.1,10.9c0,3.4-1.1,6.7-3.2,9.9
		c-2.2,3.2-5.4,5.8-9.7,7.7c-4.3,2-8.9,3-13.8,3c-3.1,0-7-0.6-11.8-1.7l-5.3,18.2c-1.3,4.3-1.9,7.2-1.9,8.6c0,1.1,0.4,1.9,1.3,2.6
		c0.9,0.7,3,1.1,6.4,1.3L770,939h-26.5l0.5-1.8c3.5,0,5.9-0.6,7.3-1.8c1.4-1.2,2.8-4.5,4.4-9.9l11.1-38.1c1.3-4.6,2-7.6,2-9.2
		c0-1.1-0.5-2.1-1.4-2.8c-0.9-0.8-3-1.2-6.2-1.4L761.7,872.2z M770.9,903.3c3.7,1,6.7,1.5,9,1.5c3.6,0,6.8-0.7,9.7-2.2
		c2.9-1.5,5.2-3.7,6.9-6.7c1.7-3,2.5-6,2.5-9.2c0-3.3-1-5.9-3.1-7.9c-2-1.9-5.1-2.9-9.2-2.9c-2.2,0-5,0.3-8.1,0.8L770.9,903.3z"/>
	<path class="st1" d="M855,894.4l-9.6,33.4l-1.1,4.5c-0.1,0.4-0.1,0.8-0.1,1c0,0.5,0.2,1,0.5,1.4c0.2,0.3,0.6,0.4,1,0.4
		c0.4,0,1-0.3,1.7-0.8c1.3-0.9,3-2.9,5.1-5.9l1.7,1.2c-2.2,3.4-4.6,6-7,7.8c-2.4,1.8-4.6,2.7-6.7,2.7c-1.4,0-2.4-0.3-3.2-1
		c-0.7-0.7-1.1-1.7-1.1-3.1c0-1.6,0.4-3.8,1.1-6.4l1-3.7c-4.3,5.6-8.3,9.6-11.9,11.8c-2.6,1.6-5.2,2.4-7.7,2.4c-2.4,0-4.5-1-6.2-3
		c-1.7-2-2.6-4.7-2.6-8.2c0-5.2,1.6-10.7,4.7-16.6c3.1-5.8,7.1-10.5,12-13.9c3.8-2.8,7.3-4.2,10.7-4.2c2,0,3.7,0.5,5.1,1.6
		c1.3,1.1,2.3,2.8,3,5.3l1.8-5.6L855,894.4z M837.4,897c-2.1,0-4.3,1-6.7,3c-3.4,2.8-6.4,6.9-9,12.4c-2.6,5.5-3.9,10.5-3.9,14.9
		c0,2.2,0.6,4,1.7,5.3c1.1,1.3,2.4,2,3.9,2c3.6,0,7.4-2.7,11.6-8c5.6-7,8.5-14.2,8.5-21.6c0-2.8-0.5-4.8-1.6-6.1
		C840.8,897.6,839.3,897,837.4,897z"/>
	<path class="st1" d="M866.5,895.6h31.4v1.2l-34.1,35.5h14.4c3.4,0,5.6-0.1,6.5-0.4c0.9-0.3,1.8-0.8,2.5-1.7
		c0.8-0.9,1.6-2.4,2.6-4.7h1.8l-4.3,13.4h-32.1v-1.4l34.1-35.5h-14.2c-3,0-4.8,0.1-5.4,0.2c-0.9,0.2-1.9,0.7-2.8,1.6
		c-0.9,0.8-1.8,2.2-2.8,4.1h-1.9L866.5,895.6z"/>
</g>
</svg>
